<svg width="116" height="92" viewBox="0 0 116 92" fill="none" xmlns="http://www.w3.org/2000/svg">
<path d="M41.94 3C50.2354 2.9996 58.3446 5.4591 65.2422 10.0675C72.1397 14.6758 77.5159 21.2261 80.6907 28.8899C83.8655 36.5537 84.6964 44.9868 83.0784 53.1229C81.4604 61.2589 77.466 68.7325 71.6005 74.5984C65.735 80.4643 58.2618 84.4592 50.1258 86.0778C41.9899 87.6964 33.5567 86.8661 25.8926 83.6918C18.2286 80.5176 11.678 75.1419 7.06913 68.2447C2.46027 61.3474 0.000197983 53.2384 1.90772e-07 44.943C-0.000525138 39.4351 1.0839 33.981 3.19136 28.8922C5.29882 23.8034 8.38803 19.1795 12.2826 15.2847C16.1771 11.3899 20.8008 8.30034 25.8894 6.19251C30.9781 4.08469 36.4321 2.99987 41.94 3Z" fill="#51B1B0" />
<path d="M64.0659 72.4678L55.4103 66.8998C52.3996 64.9631 48.389 65.8337 46.4522 68.8444C44.5155 71.8551 45.3861 75.8658 48.3968 77.8026L57.0524 83.3705C60.0631 85.3073 64.0738 84.4366 66.0105 81.4259C67.9473 78.4152 67.0766 74.4045 64.0659 72.4678Z" stroke="currentColor" stroke-width="6" stroke-linecap="round" stroke-linejoin="round"/>
<path d="M93.5756 58.932C93.4946 58.752 93.6006 59.026 93.5076 58.813C92.3826 57.198 86.5506 56.447 83.6876 54.984C80.6246 53.418 78.1056 49.062 71.1626 49.062C64.2196 49.062 54.8926 63.018 54.8926 63.018L68.8476 72.003C69.3061 71.2167 69.934 70.5424 70.6856 70.029C72.1146 68.94 73.8176 70.229 75.9276 70.846C78.0376 71.463 82.8026 73.705 86.3426 73.705C88.3097 73.7757 90.2385 73.1491 91.7886 71.936L110.242 57.98C110.242 57.98 112.897 56.618 111.671 54.58C110.445 52.542 107.927 53.831 107.927 53.831C107.927 53.831 94.1266 60.656 93.6266 60.775C93.4536 60.817 94.1716 59.805 93.5756 58.937V58.932Z" stroke="currentColor" stroke-width="6" stroke-linecap="round" stroke-linejoin="round"/>
<path d="M73.9307 32.5661V39.4061C73.9344 40.5832 74.4037 41.711 75.2361 42.5433C76.0686 43.3756 77.1965 43.8447 78.3737 43.8481H91.9017V52.8741L100.928 43.8481H105.928C107.105 43.8444 108.232 43.3752 109.065 42.543C109.897 41.7107 110.366 40.583 110.37 39.4061V25.5961C110.366 24.4189 109.897 23.291 109.065 22.4585C108.233 21.6261 107.105 21.1568 105.928 21.1531H103.157" stroke="currentColor" stroke-width="6" stroke-linecap="round" stroke-linejoin="round"/>
<path d="M64.7584 3H92.3124C93.4896 3.00369 94.6174 3.47301 95.4497 4.30547C96.2819 5.13792 96.751 6.26587 96.7544 7.443V21.252C96.751 22.4291 96.2819 23.5571 95.4497 24.3895C94.6174 25.222 93.4896 25.6913 92.3124 25.695H85.2764V34.721L76.2484 25.695H64.7584C63.5811 25.6916 62.453 25.2224 61.6205 24.3899C60.7881 23.5574 60.3189 22.4293 60.3154 21.252V7.443C60.3189 6.2657 60.7881 5.1376 61.6205 4.30511C62.453 3.47263 63.5811 3.00343 64.7584 3Z" stroke="currentColor" stroke-width="6" stroke-linecap="round" stroke-linejoin="round"/>
<path d="M78.3789 59.363C78.3789 59.363 87.5459 63.175 90.6329 62.54C93.7199 61.905 93.9799 60.487 93.5089 58.813" stroke="currentColor" stroke-width="6" stroke-linecap="round" stroke-linejoin="round"/>
</svg>
