<svg width="150" height="150" viewBox="0 0 150 150" fill="none" xmlns="http://www.w3.org/2000/svg">
<path d="M60.9805 33.083C84.1805 33.083 102.88 51.883 102.88 74.983C102.88 98.183 84.0805 116.883 60.9805 116.883C37.8805 116.883 19.0805 98.083 19.0805 74.983C18.9805 51.883 37.7805 33.083 60.9805 33.083Z" fill="#51B1B0"/>
<path d="M72.191 101.072L80.891 106.672C83.891 108.572 84.791 112.572 82.791 115.672C80.891 118.672 76.891 119.572 73.791 117.572L65.091 111.972C62.091 110.072 61.191 106.072 63.191 102.972C65.191 99.972 69.191 99.072 72.191 101.072Z" stroke="currentColor" stroke-width="5" stroke-miterlimit="3.9999" stroke-linecap="round" stroke-linejoin="round"/>
<path d="M112.595 88.962C112.495 88.762 112.595 89.062 112.495 88.862C111.395 87.262 105.495 86.462 102.695 85.062C99.5945 83.462 97.0945 79.162 90.1945 79.162C83.2945 79.162 73.8945 93.062 73.8945 93.062L87.8945 102.062C88.3945 101.262 88.9945 100.562 89.6945 100.062C91.0945 98.962 92.7945 100.262 94.8945 100.862C96.9945 101.462 101.795 103.762 105.295 103.762C107.295 103.862 109.195 103.162 110.695 101.962L129.195 87.962C129.195 87.962 131.895 86.562 130.595 84.562C129.295 82.562 126.895 83.862 126.895 83.862C126.895 83.862 113.095 90.662 112.595 90.762C112.495 90.862 113.195 89.862 112.595 88.962Z" stroke="currentColor" stroke-width="5" stroke-linecap="round" stroke-linejoin="round"/>
<path d="M92.8906 57.9719V64.7719C92.8906 67.2719 94.8906 69.1719 97.2906 69.1719H110.791V78.1719L119.791 69.1719H124.791C127.291 69.1719 129.191 67.1719 129.191 64.7719V50.9719C129.191 48.4719 127.191 46.5719 124.791 46.5719H121.991" stroke="currentColor" stroke-width="5" stroke-linecap="round" stroke-linejoin="round"/>
<path d="M83.7903 28.3719H111.39C113.89 28.3719 115.79 30.3719 115.79 32.7719V46.5719C115.79 49.0719 113.79 50.972 111.39 50.972H104.39V59.972L95.3903 50.972H83.7903C81.2903 50.972 79.3903 48.9719 79.3903 46.5719V32.7719C79.2903 30.3719 81.2903 28.3719 83.7903 28.3719Z" stroke="currentColor" stroke-width="5" stroke-linecap="round" stroke-linejoin="round"/>
<path d="M97.3906 89.3719C97.3906 89.3719 106.591 93.172 109.691 92.572C112.791 91.972 112.991 90.4719 112.591 88.8719" stroke="currentColor" stroke-width="5" stroke-linecap="round" stroke-linejoin="round"/>
</svg>
