<svg width="135" height="84" viewBox="0 0 135 84" fill="none" xmlns="http://www.w3.org/2000/svg">
<g clip-path="url(#clip0_59_290)">
<path d="M41.94 4.77064e-08C50.2354 -0.000395515 58.3446 2.4591 65.2422 7.06746C72.1397 11.6758 77.5159 18.2261 80.6907 25.8899C83.8655 33.5537 84.6964 41.9868 83.0784 50.1229C81.4604 58.2589 77.466 65.7325 71.6005 71.5984C65.735 77.4643 58.2618 81.4592 50.1258 83.0778C41.9899 84.6964 33.5567 83.8661 25.8926 80.6918C18.2286 77.5176 11.678 72.1419 7.06913 65.2447C2.46027 58.3474 0.000197983 50.2384 1.90772e-07 41.943C-0.000525138 36.4351 1.0839 30.981 3.19136 25.8922C5.29882 20.8034 8.38803 16.1795 12.2826 12.2847C16.1771 8.38988 20.8008 5.30034 25.8894 3.19251C30.9781 1.08469 36.4321 -0.000131309 41.94 4.77064e-08Z" fill="#51B1B0"/>
<path d="M131.216 4.70801H88.5596V47.364H131.216V4.70801Z" stroke="currentColor" stroke-width="6" stroke-linecap="round" stroke-linejoin="round"/>
<path d="M75.6473 58.7989V33.0769C71.5156 33.8868 67.681 35.8026 64.5525 38.6203C61.4239 41.4379 59.1185 45.0517 57.8822 49.0765C56.6458 53.1012 56.5248 57.386 57.5319 61.4741C58.5391 65.5622 60.6369 69.3004 63.6014 72.2902C66.5659 75.2799 70.2861 77.4092 74.3656 78.451C78.445 79.4928 82.7308 79.408 86.7658 78.2058C90.8009 77.0036 94.4341 74.729 97.2782 71.6244C100.122 68.5198 102.07 64.7016 102.915 60.5769H77.4273C76.9556 60.5769 76.5032 60.3896 76.1694 60.0563C75.8356 59.7229 75.6478 59.2706 75.6473 58.7989Z" stroke="currentColor" stroke-width="6" stroke-linecap="round" stroke-linejoin="round"/>
</g>
<defs>
<clipPath id="clip0_59_290">
<rect width="134.216" height="83.883" fill="white"/>
</clipPath>
</defs>
</svg>
