<svg width="150" height="150" viewBox="0 0 150 150" fill="none" xmlns="http://www.w3.org/2000/svg">
<path d="M61.3008 33.083C84.5008 33.083 103.201 51.883 103.201 74.983C103.201 98.183 84.4008 116.883 61.3008 116.883C38.2008 116.883 19.4008 98.083 19.4008 74.983C19.3008 51.883 38.1008 33.083 61.3008 33.083Z" fill="#51B1B0"/>
<path d="M64.3066 70.678C64.3066 70.278 64.3066 69.778 64.3066 69.378C64.3066 51.078 79.2066 36.178 97.5066 36.178C115.807 36.178 130.707 51.078 130.707 69.378" stroke="currentColor" stroke-width="5" stroke-linecap="round" stroke-linejoin="round"/>
<path d="M73.0059 69.178C73.0059 68.878 73.0059 68.578 73.0059 68.178C73.0059 54.678 84.0059 43.678 97.5059 43.678C111.006 43.678 122.006 54.678 122.006 68.178" stroke="currentColor" stroke-width="5" stroke-linecap="round" stroke-linejoin="round"/>
<path d="M106.007 68.478C105.807 63.778 101.807 60.078 97.1074 60.278C92.5074 60.478 88.9074 64.178 88.9074 68.778V80.678C88.9074 80.678 89.4074 91.978 79.6074 97.378" stroke="currentColor" stroke-width="5" stroke-linecap="round" stroke-linejoin="round"/>
<path d="M91.3066 53.078C100.607 49.678 110.907 54.378 114.307 63.578C115.007 65.378 115.307 67.178 115.407 69.078" stroke="currentColor" stroke-width="5" stroke-linecap="round" stroke-linejoin="round"/>
<path d="M79.6074 69.8779C79.6074 66.7779 80.4074 63.6779 82.0074 60.8779" stroke="currentColor" stroke-width="5" stroke-linecap="round" stroke-linejoin="round"/>
<path d="M97.8066 69.178V82.078" stroke="currentColor" stroke-width="5" stroke-linecap="round" stroke-linejoin="round"/>
<path d="M97.8059 89.978C97.8059 89.978 97.7059 97.978 82.0059 112.478" stroke="currentColor" stroke-width="5" stroke-linecap="round" stroke-linejoin="round"/>
<path d="M106.007 73.178V79.878C106.007 79.878 106.307 99.178 101.107 108.678" stroke="currentColor" stroke-width="5" stroke-linecap="round" stroke-linejoin="round"/>
<path d="M130.707 76.778V93.478" stroke="currentColor" stroke-width="5" stroke-linecap="round" stroke-linejoin="round"/>
<path d="M115.407 74.678C115.407 74.678 116.007 97.378 109.307 113.878" stroke="currentColor" stroke-width="5" stroke-linecap="round" stroke-linejoin="round"/>
<path d="M79.607 76.178C79.607 76.178 79.807 83.478 74.707 88.578" stroke="currentColor" stroke-width="5" stroke-linecap="round" stroke-linejoin="round"/>
<path d="M122.006 78.778V87.178" stroke="currentColor" stroke-width="5" stroke-linecap="round" stroke-linejoin="round"/>
<path d="M64.3066 76.778V79.878" stroke="currentColor" stroke-width="5" stroke-linecap="round" stroke-linejoin="round"/>
</svg>
