<svg width="150" height="150" viewBox="0 0 150 150" fill="none" xmlns="http://www.w3.org/2000/svg">
<path d="M74.1998 61.5C74.1998 95.4837 37.1587 123 37.1587 123C37.1587 123 0 95.4837 0 61.5C0 27.5163 37.1587 0 37.1587 0C37.1587 0 74.1998 27.5163 74.1998 61.5Z" fill="#437ABE"/>
<path d="M43.5078 98.5412H36.2172C32.4543 98.5412 29.2793 95.3662 29.2793 91.6033V66.6741C29.2793 62.9112 32.4543 59.7362 36.2172 59.7362H43.5078C47.2707 59.7362 50.4456 62.9112 50.4456 66.6741V91.6033C50.4456 95.3662 47.2707 98.5412 43.5078 98.5412Z" stroke="currentColor" stroke-width="5" stroke-miterlimit="10"/>
<path d="M73.9636 39.7458C69.6127 39.7458 66.085 36.2181 66.085 31.8672C66.085 27.5164 69.6127 23.9886 73.9636 23.9886C78.3144 23.9886 81.8421 27.5164 81.8421 31.8672C81.8421 36.2181 78.3144 39.7458 73.9636 39.7458Z" stroke="currentColor" stroke-width="5" stroke-miterlimit="10"/>
<path d="M94.1903 26.6933L90.8978 26.1053C90.545 25.047 90.0746 23.9887 89.6043 22.9303L91.4857 20.2258C92.3088 19.0498 92.1913 17.5212 91.1329 16.5804L88.1932 13.6407C87.6052 13.0527 86.8997 12.8175 86.1941 12.8175C85.6062 12.8175 85.0182 13.0527 84.5479 13.4055L81.8433 15.2869C80.785 14.699 79.7266 14.2286 78.5507 13.9934L77.9628 10.8185C77.7276 9.4074 76.5517 8.46667 75.1406 8.46667H71.2601C69.849 8.46667 68.6731 9.52499 68.4379 10.8185L67.85 14.111C66.7916 14.4638 65.7333 14.9342 64.675 15.4045L61.9704 13.5231C61.5001 13.1703 60.9121 12.9351 60.3241 12.9351C59.501 12.9351 58.7955 13.2879 58.3251 13.7583L55.3853 16.698C54.4446 17.6388 54.2094 19.285 55.0326 20.3433L56.914 23.0479C56.3261 24.1063 55.9733 25.1646 55.6205 26.2229L52.4456 26.8108C51.0345 27.046 50.0938 28.2219 50.0938 29.633V33.7487C50.0938 35.1598 51.1521 36.3357 52.4456 36.5709L55.7381 37.1588C56.0909 38.2172 56.5612 39.2755 57.0316 40.3338L55.1502 43.0384C54.327 44.2143 54.4446 45.743 55.5029 46.6837L58.4427 49.6235C59.0306 50.2114 59.7362 50.4466 60.4417 50.4466C61.0297 50.4466 61.6176 50.2114 62.088 49.8586L64.7926 47.9772C65.7333 48.4476 66.7916 48.9179 67.85 49.2707L68.4379 52.5632C68.6731 53.9743 69.849 54.915 71.2601 54.915H75.3758C76.7869 54.915 77.9628 53.8567 78.198 52.5632L78.7859 49.2707C79.8442 48.9179 80.9025 48.4476 81.9609 47.9772L84.6654 49.8586C85.1358 50.2114 85.7238 50.4466 86.3117 50.4466C87.1349 50.4466 87.8404 50.0938 88.3108 49.6235L91.2505 46.6837C92.1913 45.743 92.4264 44.0967 91.6033 43.0384L89.7218 40.3338C90.3098 39.2755 90.6626 38.2172 91.0154 37.1588L94.3079 36.5709C95.719 36.3357 96.6597 35.1598 96.6597 33.7487V29.633C96.6597 28.2219 95.6014 26.9284 94.1903 26.6933Z" stroke="currentColor" stroke-width="5" stroke-miterlimit="10" stroke-linecap="round" stroke-linejoin="round"/>
<path d="M50.6807 68.7907C50.6807 68.7907 58.4417 64.7927 64.5564 64.9103C70.6711 65.0278 75.2571 68.3204 75.2571 68.3204L86.5459 68.438C86.5459 68.438 90.544 68.3204 90.544 72.4361C90.544 77.3749 86.781 77.6101 86.781 77.6101H70.0831" stroke="currentColor" stroke-width="5" stroke-miterlimit="10" stroke-linecap="round" stroke-linejoin="round"/>
<path d="M83.4886 77.6101H96.1884L108.535 64.5575C108.535 64.5575 112.886 60.7946 116.649 64.5575C120.412 68.3204 116.649 72.3185 116.649 72.3185C116.649 72.3185 99.481 93.0145 95.9532 93.0145C92.4255 93.0145 77.4915 94.5432 65.0268 93.0145C52.5622 91.4858 51.5039 91.1331 51.5039 91.1331" stroke="currentColor" stroke-width="5" stroke-miterlimit="10" stroke-linecap="round" stroke-linejoin="round"/>
</svg>
