<svg width="150" height="150" viewBox="0 0 150 150" fill="none" xmlns="http://www.w3.org/2000/svg">
<path d="M81.5004 77.9C81.5004 106.8 50.0004 130.2 50.0004 130.2C50.0004 130.2 18.4004 106.8 18.4004 77.9C18.4004 49 50.0004 25.6 50.0004 25.6C50.0004 25.6 81.5004 49 81.5004 77.9Z" fill="#437ABE"/>
<path d="M55.3998 109.4H49.1998C45.9998 109.4 43.2998 106.7 43.2998 103.5V82.3C43.2998 79.1 45.9998 76.4 49.1998 76.4H55.3998C58.5998 76.4 61.2998 79.1 61.2998 82.3V103.5C61.2998 106.7 58.5998 109.4 55.3998 109.4Z" stroke="currentColor" stroke-width="5" stroke-miterlimit="10"/>
<path d="M81.2996 59.4C77.5996 59.4 74.5996 56.4 74.5996 52.7C74.5996 49 77.5996 46 81.2996 46C84.9996 46 87.9996 49 87.9996 52.7C87.9996 56.4 84.9996 59.4 81.2996 59.4Z" stroke="currentColor" stroke-width="5" stroke-miterlimit="10"/>
<path d="M98.5 48.3L95.7 47.8C95.4 46.9 95 46 94.6 45.1L96.2 42.8C96.9 41.8 96.8 40.5001 95.9 39.7001L93.4 37.2001C92.9 36.7001 92.3 36.5 91.7 36.5C91.2 36.5 90.7 36.7 90.3 37L88 38.6C87.1 38.1 86.2 37.7 85.2 37.5L84.7 34.8C84.5 33.6 83.5 32.8 82.3 32.8H79C77.8 32.8 76.8 33.7 76.6 34.8L76.1 37.6C75.2 37.9 74.3 38.3001 73.4 38.7001L71.1 37.1C70.7 36.8 70.2 36.6 69.7 36.6C69 36.6 68.4 36.9 68 37.3L65.5 39.8C64.7 40.6 64.5 42.0001 65.2 42.9001L66.8 45.2001C66.3 46.1001 66 47.0001 65.7 47.9001L63 48.4001C61.8 48.6001 61 49.6 61 50.8V54.3C61 55.5 61.9 56.5001 63 56.7001L65.8 57.2001C66.1 58.1001 66.5 59.0001 66.9 59.9001L65.3 62.2001C64.6 63.2001 64.7 64.5001 65.6 65.3001L68.1 67.8001C68.6 68.3001 69.2 68.5 69.8 68.5C70.3 68.5 70.8 68.3 71.2 68L73.5 66.4001C74.3 66.8001 75.2 67.2 76.1 67.5L76.6 70.3001C76.8 71.5001 77.8 72.3001 79 72.3001H82.5C83.7 72.3001 84.7 71.4001 84.9 70.3001L85.4 67.5C86.3 67.2 87.2 66.8001 88.1 66.4001L90.4 68C90.8 68.3 91.3 68.5 91.8 68.5C92.5 68.5 93.1 68.2001 93.5 67.8001L96 65.3001C96.8 64.5001 97 63.1001 96.3 62.2001L94.7 59.9001C95.2 59.0001 95.5 58.1001 95.8 57.2001L98.6 56.7001C99.8 56.5001 100.6 55.5 100.6 54.3V50.8C100.6 49.6 99.7 48.5 98.5 48.3Z" stroke="currentColor" stroke-width="5" stroke-miterlimit="10" stroke-linecap="round" stroke-linejoin="round"/>
<path d="M61.5 84.1C61.5 84.1 68.1 80.7 73.3 80.8C78.5 80.9 82.4 83.7 82.4 83.7L92 83.8C92 83.8 95.4 83.7 95.4 87.2C95.4 91.4 92.2 91.6 92.2 91.6H78" stroke="currentColor" stroke-width="5" stroke-miterlimit="10" stroke-linecap="round" stroke-linejoin="round"/>
<path d="M89.4002 91.6001H100.2L110.7 80.5001C110.7 80.5001 114.4 77.3001 117.6 80.5001C120.8 83.7001 117.6 87.1001 117.6 87.1001C117.6 87.1001 103 104.7 100 104.7C97.0002 104.7 84.3002 106 73.7002 104.7C63.1002 103.4 62.2002 103.1 62.2002 103.1" stroke="currentColor" stroke-width="5" stroke-miterlimit="10" stroke-linecap="round" stroke-linejoin="round"/>
</svg>
