<svg width="150" height="150" viewBox="0 0 150 150" fill="none" xmlns="http://www.w3.org/2000/svg">
<path d="M88.1 75.3C88.1 104.2 56.6 127.6 56.6 127.6C56.6 127.6 25 104.2 25 75.3C25 46.4 56.6 23 56.6 23C56.6 23 88.1 46.4 88.1 75.3Z" fill="#437ABE"/>
<path d="M61.9994 106.8H55.7994C52.5994 106.8 49.8994 104.1 49.8994 100.9V79.7001C49.8994 76.5001 52.5994 73.8 55.7994 73.8H61.9994C65.1994 73.8 67.8994 76.5001 67.8994 79.7001V100.9C67.8994 104.1 65.1994 106.8 61.9994 106.8Z" stroke="currentColor" stroke-width="5" stroke-miterlimit="10"/>
<path d="M87.8992 56.8C84.1992 56.8 81.1992 53.8 81.1992 50.1C81.1992 46.4 84.1992 43.4 87.8992 43.4C91.5992 43.4 94.5992 46.4 94.5992 50.1C94.5992 53.8 91.5992 56.8 87.8992 56.8Z" stroke="currentColor" stroke-width="5" stroke-miterlimit="10"/>
<path d="M105.1 45.7001L102.3 45.2001C102 44.3001 101.6 43.4001 101.2 42.5001L102.8 40.2001C103.5 39.2001 103.4 37.9001 102.5 37.1001L99.9996 34.6001C99.4996 34.1001 98.8996 33.9001 98.2996 33.9001C97.7996 33.9001 97.2996 34.1001 96.8996 34.4001L94.5996 36.0001C93.6996 35.5001 92.7996 35.1001 91.7996 34.9001L91.2996 32.2001C91.0996 31.0001 90.0996 30.2001 88.8996 30.2001H85.5996C84.3996 30.2001 83.3996 31.1001 83.1996 32.2001L82.6996 35.0001C81.7996 35.3001 80.8996 35.7001 79.9996 36.1001L77.6996 34.5001C77.2996 34.2001 76.7996 34.0001 76.2996 34.0001C75.5996 34.0001 74.9996 34.3001 74.5996 34.7001L72.0996 37.2001C71.2996 38.0001 71.0996 39.4001 71.7996 40.3001L73.3996 42.6001C72.8996 43.5001 72.5996 44.4001 72.2996 45.3001L69.5996 45.8001C68.3996 46.0001 67.5996 47.0001 67.5996 48.2001V51.7001C67.5996 52.9001 68.4996 53.9001 69.5996 54.1001L72.3996 54.6001C72.6996 55.5001 73.0996 56.4001 73.4996 57.3001L71.8996 59.6001C71.1996 60.6001 71.2996 61.9001 72.1996 62.7001L74.6996 65.2001C75.1996 65.7001 75.7996 65.9001 76.3996 65.9001C76.8996 65.9001 77.3996 65.7001 77.7996 65.4001L80.0996 63.8001C80.8996 64.2001 81.7996 64.6001 82.6996 64.9001L83.1996 67.7001C83.3996 68.9001 84.3996 69.7001 85.5996 69.7001H89.0996C90.2996 69.7001 91.2996 68.8001 91.4996 67.7001L91.9996 64.9001C92.8996 64.6001 93.7996 64.2001 94.6996 63.8001L96.9996 65.4001C97.3996 65.7001 97.8996 65.9001 98.3996 65.9001C99.0996 65.9001 99.6996 65.6001 100.1 65.2001L102.6 62.7001C103.4 61.9001 103.6 60.5001 102.9 59.6001L101.3 57.3001C101.8 56.4001 102.1 55.5001 102.4 54.6001L105.2 54.1001C106.4 53.9001 107.2 52.9001 107.2 51.7001V48.2001C107.2 47.0001 106.3 45.9001 105.1 45.7001Z" stroke="currentColor" stroke-width="5" stroke-miterlimit="10" stroke-linecap="round" stroke-linejoin="round"/>
<path d="M68.0996 81.5C68.0996 81.5 74.6996 78.1 79.8996 78.2C85.0996 78.3 88.9996 81.1 88.9996 81.1L98.5996 81.2C98.5996 81.2 102 81.1 102 84.6C102 88.8 98.7996 89 98.7996 89H84.5996" stroke="currentColor" stroke-width="5" stroke-miterlimit="10" stroke-linecap="round" stroke-linejoin="round"/>
<path d="M95.9998 89.0001H106.8L117.3 77.9001C117.3 77.9001 121 74.7001 124.2 77.9001C127.4 81.1001 124.2 84.5001 124.2 84.5001C124.2 84.5001 109.6 102.1 106.6 102.1C103.6 102.1 90.8998 103.4 80.2998 102.1C69.6998 100.8 68.7998 100.5 68.7998 100.5" stroke="currentColor" stroke-width="5" stroke-miterlimit="10" stroke-linecap="round" stroke-linejoin="round"/>
</svg>
