<svg width="150" height="150" viewBox="0 0 150 150" fill="none" xmlns="http://www.w3.org/2000/svg">
<path d="M83.8002 77.9C83.8002 106.8 52.3002 130.2 52.3002 130.2C52.3002 130.2 20.7002 106.8 20.7002 77.9C20.7002 49 52.3002 25.6 52.3002 25.6C52.3002 25.6 83.8002 49 83.8002 77.9Z" fill="#437ABE"/>
<path d="M66.5 101.5H124.5" stroke="currentColor" stroke-width="5" stroke-miterlimit="10" stroke-linecap="round" stroke-linejoin="round"/>
<path d="M112.2 100.1V49.3999" stroke="currentColor" stroke-width="5" stroke-miterlimit="10" stroke-linecap="round" stroke-linejoin="round"/>
<path d="M66.2002 100.1V58.1" stroke="currentColor" stroke-width="5" stroke-miterlimit="10" stroke-linecap="round" stroke-linejoin="round"/>
<path d="M96 100.1V93.1" stroke="currentColor" stroke-width="5" stroke-miterlimit="10" stroke-linecap="round" stroke-linejoin="round"/>
<path d="M79.7998 100.1V93.1" stroke="currentColor" stroke-width="5" stroke-miterlimit="10" stroke-linecap="round" stroke-linejoin="round"/>
<path d="M111.1 60.9L103.3 52" stroke="currentColor" stroke-width="5" stroke-miterlimit="10" stroke-linecap="round" stroke-linejoin="round"/>
<path d="M113.2 60.9L121 52" stroke="currentColor" stroke-width="5" stroke-miterlimit="10" stroke-linecap="round" stroke-linejoin="round"/>
<path d="M111.1 75L103.3 66" stroke="currentColor" stroke-width="5" stroke-miterlimit="10" stroke-linecap="round" stroke-linejoin="round"/>
<path d="M113.2 75L121 66" stroke="currentColor" stroke-width="5" stroke-miterlimit="10" stroke-linecap="round" stroke-linejoin="round"/>
<path d="M93.3994 74.8V48.9C93.3994 41.1 99.7994 34.7 107.599 34.7H117.499C125.299 34.7 131.699 41.1 131.699 48.9V74.8C131.699 82.6 125.299 89 117.499 89H107.599" stroke="currentColor" stroke-width="5" stroke-miterlimit="10" stroke-linecap="round" stroke-linejoin="round"/>
<path d="M76.2998 90.6H99.3998" stroke="currentColor" stroke-width="5" stroke-miterlimit="10" stroke-linecap="round" stroke-linejoin="round"/>
<path d="M66.1998 58.0999C70.5629 58.0999 74.0998 54.563 74.0998 50.1999C74.0998 45.8369 70.5629 42.2999 66.1998 42.2999C61.8368 42.2999 58.2998 45.8369 58.2998 50.1999C58.2998 54.563 61.8368 58.0999 66.1998 58.0999Z" stroke="currentColor" stroke-width="5" stroke-miterlimit="10" stroke-linecap="round" stroke-linejoin="round"/>
<path d="M42.6559 116.556C55.8555 116.556 66.5558 105.856 66.5558 92.656C66.5558 79.4564 55.8555 68.756 42.6559 68.756C29.4562 68.756 18.7559 79.4564 18.7559 92.656C18.7559 105.856 29.4562 116.556 42.6559 116.556Z" stroke="currentColor" stroke-width="5" stroke-linecap="round" stroke-linejoin="round"/>
<path d="M42.6562 82.4561C44.5892 82.4561 46.1562 80.8891 46.1562 78.9561C46.1562 77.0231 44.5892 75.4561 42.6562 75.4561C40.7233 75.4561 39.1562 77.0231 39.1562 78.9561C39.1562 80.8891 40.7233 82.4561 42.6562 82.4561Z" fill="currentColor"/>
<path d="M30.2559 84.4561C30.2559 84.4561 38.7558 87.656 42.5558 87.656C46.3558 87.656 54.7559 84.656 54.7559 84.656" stroke="currentColor" stroke-width="5" stroke-linecap="round" stroke-linejoin="round"/>
<path d="M42.8559 87.756C42.8559 87.756 43.2559 94.356 42.3559 98.356C41.5559 102.056 36.7559 107.756 36.7559 107.756" stroke="currentColor" stroke-width="5" stroke-linecap="round" stroke-linejoin="round"/>
<path d="M42.4558 87.756C42.4558 87.756 42.0558 94.356 42.9558 98.356C43.7558 102.056 48.5558 107.756 48.5558 107.756" stroke="currentColor" stroke-width="5" stroke-linecap="round" stroke-linejoin="round"/>
</svg>
