<svg width="150" height="150" viewBox="0 0 150 150" fill="none" xmlns="http://www.w3.org/2000/svg">
<path d="M81.5004 77.9C81.5004 106.8 50.0004 130.2 50.0004 130.2C50.0004 130.2 18.4004 106.8 18.4004 77.9C18.4004 49 50.0004 25.6 50.0004 25.6C50.0004 25.6 81.5004 49 81.5004 77.9Z" fill="#437ABE"/>
<path d="M66.2994 35.7001H49.8994V97.8001H66.2994V35.7001Z" stroke="currentColor" stroke-width="5" stroke-miterlimit="10" stroke-linejoin="round"/>
<path d="M50.1992 44.7001H56.6992" stroke="currentColor" stroke-width="5" stroke-miterlimit="10" stroke-linecap="round" stroke-linejoin="round"/>
<path d="M50.1992 53.3H56.6992" stroke="currentColor" stroke-width="5" stroke-miterlimit="10" stroke-linecap="round" stroke-linejoin="round"/>
<path d="M50.1992 62.1H56.6992" stroke="currentColor" stroke-width="5" stroke-miterlimit="10" stroke-linecap="round" stroke-linejoin="round"/>
<path d="M50.1992 70.8H56.6992" stroke="currentColor" stroke-width="5" stroke-miterlimit="10" stroke-linecap="round" stroke-linejoin="round"/>
<path d="M50.1992 79.2001H56.6992" stroke="currentColor" stroke-width="5" stroke-miterlimit="10" stroke-linecap="round" stroke-linejoin="round"/>
<path d="M50.1992 87.8H56.6992" stroke="currentColor" stroke-width="5" stroke-miterlimit="10" stroke-linecap="round" stroke-linejoin="round"/>
<path d="M64.5 114.4H107.9V72.1L64.5 114.4Z" stroke="currentColor" stroke-width="5" stroke-miterlimit="10" stroke-linecap="round" stroke-linejoin="round"/>
<path d="M89.5996 104.5H97.4996V96.8L89.5996 104.5Z" fill="currentColor" stroke="currentColor" stroke-width="5" stroke-miterlimit="10" stroke-linecap="round" stroke-linejoin="round"/>
<path d="M85.5 69.7L83.4 67.6C82.2 66.4 82.2 64.4 83.4 63.1L110.2 36.3C111.4 35.1 113.4 35.1 114.7 36.3L116.8 38.4C118 39.6 118 41.6 116.8 42.9L90 69.7C88.8 70.9 86.8 70.9 85.5 69.7Z" stroke="currentColor" stroke-width="5" stroke-miterlimit="10" stroke-linecap="round" stroke-linejoin="round"/>
<path d="M82.8992 63.6L79.6992 73.7L89.5992 70.3L82.8992 63.6Z" stroke="currentColor" stroke-width="5" stroke-miterlimit="10" stroke-linecap="round" stroke-linejoin="round"/>
<path d="M73.0996 106H50.0996C43.4996 106 38.0996 100.6 38.0996 94V60.8C38.0996 54.2 42.6996 48.8 49.2996 48.8" stroke="currentColor" stroke-width="5" stroke-miterlimit="10" stroke-linecap="round" stroke-linejoin="round"/>
<path d="M110.799 50.7001C114.199 52.8001 116.399 56.6001 116.399 60.8001V94.0001C116.399 99.4001 112.799 103.9 107.899 105.5" stroke="currentColor" stroke-width="5" stroke-miterlimit="10" stroke-linecap="round" stroke-linejoin="round"/>
<path d="M66.6992 48.8H96.9992" stroke="currentColor" stroke-width="5" stroke-miterlimit="10" stroke-linecap="round" stroke-linejoin="round"/>
</svg>
