<svg width="150" height="150" viewBox="0 0 150 150" fill="none" xmlns="http://www.w3.org/2000/svg">
<path d="M83.8002 77.9C83.8002 106.8 52.3002 130.2 52.3002 130.2C52.3002 130.2 20.7002 106.8 20.7002 77.9C20.7002 49 52.3002 25.6 52.3002 25.6C52.3002 25.6 83.8002 49 83.8002 77.9Z" fill="#437ABE"/>
<path d="M60.7002 76.3L63.0002 48.7C63.0002 42.1 68.4002 36.7 75.0002 36.7H102.3C108.9 36.7 114.3 42.1 114.3 48.7L118.3 83.9C118.3 90.5 112.9 95.9 106.3 95.9H66.7002" stroke="currentColor" stroke-width="5" stroke-miterlimit="10" stroke-linecap="round" stroke-linejoin="round"/>
<path d="M62.7002 52.7H114" stroke="currentColor" stroke-width="5" stroke-miterlimit="10" stroke-linecap="round" stroke-linejoin="round"/>
<path d="M62.7002 77.2H114" stroke="currentColor" stroke-width="5" stroke-miterlimit="10" stroke-linecap="round" stroke-linejoin="round"/>
<path d="M81.4004 44.1H97.0004" stroke="currentColor" stroke-width="5" stroke-miterlimit="10" stroke-linecap="round" stroke-linejoin="round"/>
<path d="M104.7 90.7C107.02 90.7 108.9 88.8196 108.9 86.5C108.9 84.1804 107.02 82.3 104.7 82.3C102.38 82.3 100.5 84.1804 100.5 86.5C100.5 88.8196 102.38 90.7 104.7 90.7Z" fill="currentColor"/>
<path d="M75.2996 90.7C77.6192 90.7 79.4996 88.8196 79.4996 86.5C79.4996 84.1804 77.6192 82.3 75.2996 82.3C72.98 82.3 71.0996 84.1804 71.0996 86.5C71.0996 88.8196 72.98 90.7 75.2996 90.7Z" fill="currentColor"/>
<path d="M105.8 108.3H99.0998C97.8998 108.3 96.7998 107.3 96.7998 106V98.6C96.7998 97.4 97.7998 96.3 99.0998 96.3H105.8C107 96.3 108.1 97.3 108.1 98.6V106C108 107.3 107 108.3 105.8 108.3Z" stroke="currentColor" stroke-width="5" stroke-miterlimit="10"/>
<path d="M78.7002 108.3H72.0002C70.8002 108.3 69.7002 107.3 69.7002 106V98.6C69.7002 97.4 70.7002 96.3 72.0002 96.3H78.7002C79.9002 96.3 81.0002 97.3 81.0002 98.6V106C81.0002 107.3 79.9002 108.3 78.7002 108.3Z" stroke="currentColor" stroke-width="5" stroke-miterlimit="10"/>
<path d="M116.2 61.4H125.2V54.7" stroke="currentColor" stroke-width="4" stroke-miterlimit="10" stroke-linecap="round" stroke-linejoin="round"/>
<path d="M127.4 57.1H122.8C121.4 57.1 120.2 55.9 120.2 54.5V46.4001C120.2 45.0001 121.4 43.8 122.8 43.8H127.4C128.8 43.8 130 45.0001 130 46.4001V54.5C130 56 128.8 57.1 127.4 57.1Z" fill="currentColor"/>
<path d="M60.2998 61.4001H51.2998V54.7001" stroke="currentColor" stroke-width="4" stroke-miterlimit="10" stroke-linecap="round" stroke-linejoin="round"/>
<path d="M49.1 57.1H53.7C55.1 57.1 56.3 55.9 56.3 54.5V46.4001C56.3 45.0001 55.1 43.8 53.7 43.8H49.1C47.7 43.8 46.5 45.0001 46.5 46.4001V54.5C46.5 56 47.6 57.1 49.1 57.1Z" fill="currentColor"/>
<path d="M132.7 110.2H133.6C134.7 110.2 135.6 109.3 135.6 108.2V96.4C135.6 95.3 134.7 94.4 133.6 94.4H132.7C131.6 94.4 130.7 95.3 130.7 96.4V108.1C130.8 109.3 131.7 110.2 132.7 110.2Z" fill="currentColor"/>
<path d="M143 99.2H138.7V93.6C138.7 93.6 137.6 90.7 134 90.7H132.2C128.6 90.7 127.5 93.6 127.5 93.6V99.2H123.2" stroke="currentColor" stroke-width="4" stroke-miterlimit="10" stroke-linecap="round" stroke-linejoin="round"/>
<path d="M133 90.4V80.1" stroke="currentColor" stroke-width="4" stroke-miterlimit="10" stroke-linecap="round" stroke-linejoin="round"/>
<path d="M126.6 79.8H139.5" stroke="currentColor" stroke-width="4" stroke-miterlimit="10" stroke-linecap="round" stroke-linejoin="round"/>
<path d="M42.6559 116.556C55.8555 116.556 66.5558 105.856 66.5558 92.656C66.5558 79.4564 55.8555 68.756 42.6559 68.756C29.4562 68.756 18.7559 79.4564 18.7559 92.656C18.7559 105.856 29.4562 116.556 42.6559 116.556Z" stroke="currentColor" stroke-width="5" stroke-linecap="round" stroke-linejoin="round"/>
<path d="M42.6562 82.4561C44.5892 82.4561 46.1562 80.8891 46.1562 78.9561C46.1562 77.0231 44.5892 75.4561 42.6562 75.4561C40.7233 75.4561 39.1562 77.0231 39.1562 78.9561C39.1562 80.8891 40.7233 82.4561 42.6562 82.4561Z" fill="currentColor"/>
<path d="M30.2559 84.4561C30.2559 84.4561 38.7558 87.656 42.5558 87.656C46.3558 87.656 54.7559 84.656 54.7559 84.656" stroke="currentColor" stroke-width="5" stroke-linecap="round" stroke-linejoin="round"/>
<path d="M42.8559 87.756C42.8559 87.756 43.2559 94.356 42.3559 98.356C41.5559 102.056 36.7559 107.756 36.7559 107.756" stroke="currentColor" stroke-width="5" stroke-linecap="round" stroke-linejoin="round"/>
<path d="M42.4558 87.756C42.4558 87.756 42.0558 94.356 42.9558 98.356C43.7558 102.056 48.5558 107.756 48.5558 107.756" stroke="currentColor" stroke-width="5" stroke-linecap="round" stroke-linejoin="round"/>
</svg>
