<?xml version="1.0" encoding="utf-8"?>
<!-- Generator: Adobe Illustrator 27.3.1, SVG Export Plug-In . SVG Version: 6.00 Build 0)  -->
<svg version="1.1" id="Calque_1" xmlns="http://www.w3.org/2000/svg" xmlns:xlink="http://www.w3.org/1999/xlink" x="0px" y="0px"
     viewBox="0 0 150 97.3" style="enable-background:new 0 0 150 97.3;" xml:space="preserve">
<style type="text/css">
    .st0{fill:#FCC641;}
    .st1{fill:currentColor;}
</style>
<path id="Tracé_185" class="st0" d="M32,0L18.5,13.5l26.1,26.1L18.5,65.7L32,79.2l39.6-39.6L32,0z"/>
<g>
    <g>
        <g>
            <path class="st1" d="M111.6,68.9H71.9c-1.4,0-2.5-1.1-2.5-2.5s1.1-2.5,2.5-2.5h39.7c5.2,0,9.4-4.2,9.5-9.4l-4-35
                c0-0.1,0-0.2,0-0.3c0-5.2-4.3-9.5-9.5-9.5H80.2c-5.2,0-9.5,4.3-9.5,9.5c0,0.1,0,0.1,0,0.2l-2.4,27.7c-0.1,1.4-1.3,2.4-2.7,2.3
                c-1.4-0.1-2.4-1.3-2.3-2.7l2.4-27.6c0.1-7.9,6.5-14.4,14.5-14.4h27.3c7.9,0,14.4,6.4,14.5,14.4l4,35c0,0.1,0,0.2,0,0.3
                C126.1,62.4,119.5,68.9,111.6,68.9z"/>
        </g>
        <g>
            <path class="st1" d="M119.2,25.7H67.8c-1.4,0-2.5-1.1-2.5-2.5s1.1-2.5,2.5-2.5h51.3c1.4,0,2.5,1.1,2.5,2.5S120.6,25.7,119.2,25.7
                z"/>
        </g>
        <g>
            <path class="st1" d="M119.2,50.3H67.8c-1.4,0-2.5-1.1-2.5-2.5s1.1-2.5,2.5-2.5h51.3c1.4,0,2.5,1.1,2.5,2.5S120.6,50.3,119.2,50.3
                z"/>
        </g>
        <g>
            <path class="st1" d="M102.2,17.1H86.6c-1.4,0-2.5-1.1-2.5-2.5s1.1-2.5,2.5-2.5h15.6c1.4,0,2.5,1.1,2.5,2.5S103.6,17.1,102.2,17.1
                z"/>
        </g>
        <g>
            <circle class="st1" cx="109.9" cy="57.1" r="4.2"/>
        </g>
        <g>
            <circle class="st1" cx="80.5" cy="57.1" r="4.2"/>
        </g>
        <g>
            <g>
                <path class="st1" d="M111,81.3h-6.7c-2.6,0-4.8-2.1-4.8-4.8v-7.4c0-2.6,2.1-4.8,4.8-4.8h6.7c2.6,0,4.8,2.1,4.8,4.8v7.4
                    C115.7,79.2,113.6,81.3,111,81.3z M104.6,76.3h6.2v-6.9h-6.2V76.3z"/>
            </g>
        </g>
        <g>
            <g>
                <path class="st1" d="M83.9,81.3h-6.7c-2.6,0-4.8-2.1-4.8-4.8v-7.4c0-2.6,2.1-4.8,4.8-4.8h6.7c2.6,0,4.8,2.1,4.8,4.8v7.4
                    C88.6,79.2,86.5,81.3,83.9,81.3z M77.5,76.3h6.2v-6.9h-6.2V76.3z"/>
            </g>
        </g>
        <g>
            <path class="st1" d="M130.3,33.9h-8.9c-1.1,0-2-0.9-2-2s0.9-2,2-2h6.9v-4.7c0-1.1,0.9-2,2-2s2,0.9,2,2v6.7
                C132.3,33.1,131.5,33.9,130.3,33.9z"/>
        </g>
        <g>
            <path class="st1" d="M132.6,27.7H128c-1.4,0-2.6-1.2-2.6-2.6V17c0-1.4,1.2-2.6,2.6-2.6h4.6c1.4,0,2.6,1.2,2.6,2.6v8.1
                C135.2,26.5,134,27.7,132.6,27.7z"/>
        </g>
        <g>
            <g>
                <path class="st1" d="M65.4,33.9h-8.9c-1.1,0-2-0.9-2-2v-6.7c0-1.1,0.9-2,2-2s2,0.9,2,2v4.7h6.9c1.1,0,2,0.9,2,2
                    S66.5,33.9,65.4,33.9z"/>
            </g>
            <g>
                <path class="st1" d="M54.2,27.7h4.6c1.4,0,2.6-1.2,2.6-2.6V17c0-1.4-1.2-2.6-2.6-2.6h-4.6c-1.4,0-2.6,1.2-2.6,2.6v8.1
                    C51.7,26.5,52.8,27.7,54.2,27.7z"/>
            </g>
        </g>
        <g>
            <path class="st1" d="M137.9,80.7h0.9c1.1,0,2-0.9,2-2V67c0-1.1-0.9-2-2-2h-0.9c-1.1,0-2,0.9-2,2v11.7
                C136,79.8,136.8,80.7,137.9,80.7z"/>
        </g>
        <g>
            <path class="st1" d="M148.2,71.8h-4.3c-1.1,0-2-0.9-2-2v-5.1c-0.3-0.5-1.1-1.4-2.7-1.4h-1.8c-1.7,0-2.5,0.9-2.7,1.4v5.1
                c0,1.1-0.9,2-2,2h-4.3c-1.1,0-2-0.9-2-2s0.9-2,2-2h2.3v-3.6c0-0.2,0-0.5,0.1-0.7c0.6-1.6,2.7-4.2,6.6-4.2h1.8c4,0,6,2.7,6.6,4.2
                c0.1,0.2,0.1,0.5,0.1,0.7v3.6h2.3c1.1,0,2,0.9,2,2S149.3,71.8,148.2,71.8z"/>
        </g>
        <g>
            <path class="st1" d="M138.2,63c-1.1,0-2-0.9-2-2V50.6c0-1.1,0.9-2,2-2s2,0.9,2,2V61C140.2,62.1,139.3,63,138.2,63z"/>
        </g>
        <g>
            <path class="st1" d="M144.6,52.4h-12.8c-1.1,0-2-0.9-2-2s0.9-2,2-2h12.8c1.1,0,2,0.9,2,2S145.8,52.4,144.6,52.4z"/>
        </g>
    </g>
    <g>
        <g id="Ellipse_69_00000168814347930013276380000004523131153281824647_">
            <path class="st1" d="M52.2,54.7c-4.6,0-8.3-3.7-8.3-8.3s3.7-8.3,8.3-8.3s8.3,3.7,8.3,8.3S56.7,54.7,52.2,54.7z M52.2,43.1
                c-1.8,0-3.3,1.5-3.3,3.3c0,1.8,1.5,3.3,3.3,3.3s3.3-1.5,3.3-3.3C55.4,44.6,54,43.1,52.2,43.1z"/>
        </g>
        <g id="Groupe_216_00000002369113034228649420000006264303308972454575_" transform="translate(63.082 43.946)">
            <g id="Tracé_456_00000156568081473732581340000005757258760098920087_">
                <path class="st1" d="M-4.7,32.5c-0.2,0-0.3,0-0.5,0c-1.4-0.1-2.4-1.3-2.3-2.7s1.3-2.4,2.7-2.3c0,0,0.1,0,0.1,0l0.5-8.6
                    c-0.2-0.7-0.5-1.4-0.9-2c-0.4-0.6-1-1.1-1.5-1.4c-0.8,0.6-2,1.3-4.1,1.3c-1.4,0-2.5-1.1-2.5-2.5s1.1-2.5,2.5-2.5
                    c0.7,0,0.9-0.2,1.3-0.5c0.4-0.3,1-0.9,1.9-1c1.8-0.3,5.1,1.4,6.6,4c0.7,1.1,1.3,2.5,1.5,3.9c0,0.2,0.1,0.4,0,0.7l-0.6,9.9
                    c0,0.1,0,0.3-0.1,0.4c-0.4,1.7-1.7,3-3.4,3.3C-3.7,32.4-4.2,32.5-4.7,32.5z M-4.2,27.4C-4.2,27.4-4.2,27.4-4.2,27.4
                    C-4.2,27.4-4.2,27.4-4.2,27.4z"/>
            </g>
            <g id="Tracé_457_00000085241422818056614200000011038930855815943055_">
                <path class="st1" d="M-5.8,48.6c0,0-0.1,0-0.1,0c-1.4-0.1-2.4-1.2-2.4-2.6l0.7-15.8l0.2-11.4c0-1.4,1.2-2.5,2.5-2.5
                    c1.4,0,2.5,1.2,2.5,2.5l-0.2,11.5l-0.7,15.9C-3.4,47.6-4.5,48.6-5.8,48.6z"/>
            </g>
            <g id="Ligne_130_00000079483681764343150010000006144645873364377255_">
                <path class="st1" d="M-10.6,48.6C-10.6,48.6-10.6,48.6-10.6,48.6c-1.4,0-2.5-1.1-2.5-2.5l0.1-16.7c0-1.4,1.1-2.5,2.5-2.5
                    c0,0,0,0,0,0c1.4,0,2.5,1.1,2.5,2.5l-0.1,16.7C-8.1,47.5-9.3,48.6-10.6,48.6z"/>
            </g>
        </g>
        <g id="Groupe_217_00000134956879554534583400000000202101909705909132_" transform="translate(47.115 43.946)">
            <g id="Tracé_458_00000151528635528205189210000018053571337522640262_">
                <path class="st1" d="M-0.5,32.5c-0.5,0-1-0.1-1.5-0.2c-1.6-0.3-3-1.6-3.3-3.3c0-0.1,0-0.3-0.1-0.4L-6,18.8c0-0.2,0-0.4,0-0.7
                    c0.3-1.4,0.8-2.7,1.6-3.9c1.5-2.5,4.8-4.2,6.6-3.9c0.9,0.1,1.6,0.7,1.9,1c0.4,0.3,0.5,0.5,1.3,0.5c1.4,0,2.5,1.1,2.5,2.5
                    s-1.1,2.5-2.5,2.5c-2,0-3.3-0.7-4.1-1.3c-0.5,0.3-1.1,0.7-1.4,1.3c-0.4,0.7-0.7,1.3-0.9,2l0.5,8.6c0,0,0.1,0,0.1,0
                    c1.4-0.1,2.6,1,2.7,2.3s-1,2.6-2.3,2.7C-0.2,32.5-0.4,32.5-0.5,32.5z M-1.1,27.4C-1,27.4-1,27.4-1.1,27.4
                    C-1,27.4-1,27.4-1.1,27.4z"/>
            </g>
            <g id="Tracé_459_00000145779819771995106690000012515263591502744710_">
                <path class="st1" d="M0.6,48.6c-1.3,0-2.4-1-2.5-2.4l-0.7-15.8l-0.2-11.6c0-1.4,1.1-2.5,2.5-2.5c0,0,0,0,0,0
                    c1.4,0,2.5,1.1,2.5,2.5l0.2,11.5L3.1,46c0.1,1.4-1,2.5-2.4,2.6C0.7,48.6,0.6,48.6,0.6,48.6z"/>
            </g>
        </g>
    </g>
</g>
</svg>