<?xml version="1.0" encoding="utf-8"?>
<!-- Generator: Adobe Illustrator 27.3.1, SVG Export Plug-In . SVG Version: 6.00 Build 0)  -->
<svg version="1.1" id="Calque_1" xmlns="http://www.w3.org/2000/svg" xmlns:xlink="http://www.w3.org/1999/xlink" x="0px" y="0px"
     viewBox="0 0 150 97.3" style="enable-background:new 0 0 150 97.3;" xml:space="preserve">
<style type="text/css">
	.st0{fill:#FCC641;}
	.st1{fill:none;stroke:currentColor;stroke-width:5;stroke-linejoin:round;stroke-miterlimit:10;}
	.st2{fill:none;stroke:currentColor;stroke-width:5;stroke-linecap:round;stroke-linejoin:round;}
	.st3{fill:currentColor;}
</style>
    <path id="Tracé_185" class="st0" d="M32,0L18.5,13.5l26.1,26.1L18.5,65.7L32,79.2l39.6-39.6L32,0z"/>
    <g>
	<g>
		<circle cx="50.7" cy="43.6" r="6.3" class="st3"/>
        <path class="st1" d="M37,66.9c-5.3,2.1-9,7.2-9,13.2c0,7.8,6.4,14.2,14.2,14.2S56.4,88,56.4,80.1c0-6.7-4.6-12.3-10.9-13.8l0-0.1
			v7.2c0,2.3-1.9,4.2-4.2,4.2h0c-2.3,0-4.2-1.9-4.2-4.2V59.7l13.7-6.1v14.9"/>
        <polyline class="st1" points="51.5,69.8 67.4,69.8 72.3,87.5 		"/>
        <path class="st1" d="M69.5,76.9l3.2,12.5c0.5,2.1-0.7,4.3-2.9,4.9h0c-2.1,0.5-4.3-0.7-4.9-2.9l-3.2-12.5h-4.6"/>
	</g>
        <g id="Groupe_340_00000084491672436539475750000014006377458777133738_" transform="translate(-1353 -1732.801)">
		<g id="Groupe_323_00000104691924796624176730000002480092050323697320_" transform="translate(1378.951 1735.801)">
			<g>
				<g id="Groupe_322_00000087395995603752409870000002332942561061133230_">
					<circle id="Ellipse_73_00000059310407070173797540000003374001768122366101_" class="st2" cx="47.8" cy="27.6" r="14.2"/>
                    <circle id="Ellipse_74_00000013173081279794037160000005240529667492204693_" class="st2" cx="97.3" cy="27.6" r="14.2"/>
                    <path id="Tracé_660_00000090977852684394890580000012383730783747217310_" class="st2" d="M81.7,3.8h7l9.7,26.1"/>
                    <path id="Tracé_661_00000155852640650814655240000003796435782047307935_" class="st2" d="M54.5,3.8h7l9.7,26.1"/>
                    <polyline id="Ligne_154_00000001638461729181490880000006109766658810144174_" class="st2" points="97.3,27.6 48.7,27.6
						63.6,9.5 					"/>
                    <path id="Tracé_672_00000116237280436758635840000005337398104390264501_" class="st2" d="M77,30.9c0,2.2-1.8,4-4,4
						c-2.2,0-4-1.8-4-4c0-2.2,1.8-4,4-4c0,0,0,0,0,0C75.2,26.9,77,28.7,77,30.9z"/>
				</g>
			</g>
		</g>
	</g>
</g>
</svg>