<?xml version="1.0" encoding="utf-8"?>
<!-- Generator: Adobe Illustrator 27.3.1, SVG Export Plug-In . SVG Version: 6.00 Build 0)  -->
<svg version="1.1" id="Calque_1" xmlns="http://www.w3.org/2000/svg" xmlns:xlink="http://www.w3.org/1999/xlink" x="0px" y="0px"
     viewBox="0 0 150 97.3" style="enable-background:new 0 0 150 97.3;" xml:space="preserve">
<style type="text/css">
    .st0{fill:#FCC641;}
    .st1{fill:currentColor;}
</style>
<path id="Tracé_185" class="st0" d="M32,0L18.5,13.5l26.1,26.1L18.5,65.7L32,79.2l39.6-39.6L32,0z"/>
<g>
    <g>
        <path class="st1" d="M138,71.3c-0.3,0-0.5,0-0.8-0.1l-17.2-5.8l-17.2,5.5c-0.5,0.2-1,0.2-1.5,0l-18.7-5.7
            c-1.3-0.4-2.1-1.8-1.7-3.1c0.4-1.3,1.8-2.1,3.1-1.7l18,5.5l17.2-5.5c0.5-0.2,1.1-0.2,1.6,0l14.6,4.9V22.1l-15.2-5.8l-17.6,4.2
            c-0.4,0.1-0.8,0.1-1.2,0l-15.7-3.7v3.2c0,1.4-1.1,2.5-2.5,2.5s-2.5-1.1-2.5-2.5v-6.3c0-0.8,0.3-1.5,0.9-2c0.6-0.5,1.4-0.6,2.1-0.5
            l18.2,4.3l17.8-4.2c0.5-0.1,1-0.1,1.5,0.1l17.5,6.7c1,0.4,1.6,1.3,1.6,2.3v48.4c0,0.8-0.4,1.6-1,2C139.1,71.2,138.5,71.3,138,71.3
            z"/>
    </g>
    <g>
        <g>
            <g>
                <path class="st1" d="M71.8,66.6c-6.1,0-16.7-18.6-16.7-26.9c0-9.2,7.5-16.7,16.7-16.7s16.7,7.5,16.7,16.7
                    C88.5,48,77.9,66.6,71.8,66.6z M72,61.6L72,61.6L72,61.6z M71.8,28c-6.5,0-11.7,5.3-11.7,11.7c0,6.7,8.8,20.3,11.7,21.8
                    c3-1.5,11.7-15.2,11.7-21.8C83.5,33.2,78.3,28,71.8,28z"/>
            </g>
            <g>
                <circle class="st1" cx="71.8" cy="39.7" r="5.6"/>
            </g>
        </g>
    </g>
    <g>
        <path class="st1" d="M102.6,71c-1.4,0-2.5-1.1-2.5-2.5V18.2c0-1.4,1.1-2.5,2.5-2.5s2.5,1.1,2.5,2.5v50.4
            C105.1,69.9,104,71,102.6,71z"/>
    </g>
    <g>
        <path class="st1" d="M120.5,65.3c-1.4,0-2.5-1.1-2.5-2.5v-49c0-1.4,1.1-2.5,2.5-2.5s2.5,1.1,2.5,2.5v49
            C123,64.2,121.9,65.3,120.5,65.3z"/>
    </g>
</g>
</svg>