<?xml version="1.0" encoding="UTF-8"?>
<svg id="Calque_1" xmlns="http://www.w3.org/2000/svg" version="1.1" viewBox="0 0 150 97.3">
  <!-- Generator: Adobe Illustrator 29.7.1, SVG Export Plug-In . SVG Version: 2.1.1 Build 8)  -->
  <defs>
    <style>
      .st0 {
        stroke: currentColor;
      }

      .st0, .st1 {
        fill: none;
        stroke-linecap: round;
        stroke-linejoin: round;
        stroke-width: 5px;
      }

      .st1 {
        stroke: currentColor;
      }

      .st2 {
        fill: #fcc641;
      }
    </style>
  </defs>
  <path id="Tracé_185" class="st2" d="M32,0l-13.5,13.5,26.1,26.1-26.1,26.1,13.5,13.5,39.6-39.6L32,0Z"/>
  <g>
    <g>
      <path class="st0" d="M44.4,74.6h0c.3-.4.6-.8.9-1.2.3-.4.7-.7,1.1-1s.8-.5,1.3-.7.9-.4,1.4-.5,1-.2,1.5-.2,1,0,1.5.1,1,.2,1.4.4c.5.2.9.4,1.3.7l10.2,6.7c.4.3.8.6,1.2.9.4.3.7.7,1,1.1s.5.8.7,1.3.4.9.5,1.4.2,1,.2,1.5,0,1-.1,1.5-.2,1-.4,1.4c-.2.5-.4.9-.7,1.3-.3.4-.6.8-.9,1.2-.3.4-.7.7-1.1,1s-.8.5-1.3.7-.9.4-1.4.5-1,.2-1.5.2-1,0-1.5-.1-1-.2-1.4-.4c-.5-.2-.9-.4-1.3-.7l-10.1-6.5c-.4-.3-.8-.6-1.2-.9s-.7-.7-1-1.1-.5-.8-.7-1.3-.4-.9-.5-1.4-.2-1-.2-1.5,0-1,.1-1.5.2-1,.4-1.4c.1-.6.3-1,.6-1.5Z"/>
      <path class="st0" d="M99.6,63c-.1-.2,0,.1-.1-.1-1.3-1.9-8.1-2.8-11.5-4.5-3.6-1.8-6.5-6.9-14.7-6.9s-19.1,16.3-19.1,16.3l16.3,10.5s.5-1,2.2-2.3,3.7.2,6.1,1c2.5.7,8.1,3.3,12.2,3.3s6.4-2.1,6.4-2.1l21.6-16.3s3.1-1.6,1.7-4-4.4-.9-4.4-.9c0,0-16.2,8-16.7,8.1-.2.1.7-1,0-2.1Z"/>
      <path class="st0" d="M81.8,63.5s10.7,4.5,14.4,3.7c3.6-.7,3.9-2.4,3.4-4.4"/>
    </g>
    <g>
      <circle id="Ellipse_73" class="st1" cx="71.9" cy="28.5" r="12.3"/>
      <circle id="Ellipse_74" class="st1" cx="114.5" cy="28.5" r="12.3"/>
      <path id="Tracé_660" class="st1" d="M99.1,3.4h6l10.3,27"/>
      <path id="Tracé_661" class="st1" d="M77.6,8h6l8.4,22.4"/>
      <polyline id="Ligne_154" class="st1" points="114.5 28.5 72.6 28.5 85.5 12.9"/>
      <path id="Tracé_672" class="st1" d="M97,31.4c0,1.9-1.6,3.5-3.5,3.5s-3.5-1.6-3.5-3.5,1.6-3.5,3.5-3.5h0c2,0,3.5,1.6,3.5,3.5Z"/>
    </g>
  </g>
</svg>