<svg version="1.1" id="Calque_1" xmlns="http://www.w3.org/2000/svg" x="0px" y="0px"
	 viewBox="0 0 150 97.3" style="enable-background:new 0 0 150 97.3;" xml:space="preserve">
<style type="text/css">
	.st0 { fill: #FCC641; }
	.st1 { fill: none; stroke: currentColor; stroke-width: 5; stroke-miterlimit: 10; }
	.st2 { fill: none; stroke: currentColor; stroke-width: 5; stroke-linecap: round; stroke-linejoin: round; stroke-miterlimit: 10; }
</style>
<path id="Tracé_185" class="st0" d="M32,0L18.5,13.5l26.1,26.1L18.5,65.7L32,79.2l39.6-39.6L32,0z"/>
<g>
	<path class="st1" d="M94.8,67c-5.8,0-10.5-4.7-10.5-10.5c0-5.8,4.7-10.5,10.5-10.5s10.5,4.7,10.5,10.5C105.3,62.3,100.6,67,94.8,67
		z"/>
	<path class="st2" d="M121.9,49.7l-4.3-0.7c-0.5-1.5-1-2.9-1.7-4.2l2.6-3.6c1.1-1.5,0.9-3.6-0.4-4.9l-3.9-3.9
		c-0.7-0.7-1.7-1.1-2.7-1.1c-0.8,0-1.6,0.2-2.2,0.7l-3.6,2.6c-1.4-0.7-2.9-1.3-4.4-1.8l-0.7-4.3c-0.3-1.8-1.9-3.2-3.8-3.2h-5.4
		c-1.9,0-3.5,1.3-3.8,3.2l-0.7,4.4c-1.4,0.5-2.9,1-4.2,1.8L79,32.1c-0.6-0.5-1.4-0.7-2.2-0.7c-1,0-2,0.4-2.7,1.1l-3.9,3.9
		c-1.3,1.3-1.5,3.4-0.4,4.9l2.6,3.6c-0.7,1.4-1.3,2.8-1.7,4.2l-4.3,0.7c-1.8,0.3-3.2,1.9-3.2,3.8v5.4c0,1.9,1.3,3.5,3.2,3.8l4.4,0.7
		c0.5,1.4,1,2.9,1.8,4.2L70,71.3c-1.1,1.5-0.9,3.6,0.4,4.9l3.9,3.9c0.7,0.7,1.7,1.1,2.7,1.1c0.8,0,1.6-0.2,2.2-0.7l3.6-2.6
		c1.3,0.7,2.7,1.2,4.1,1.7l0.7,4.3c0.3,1.8,1.9,3.2,3.8,3.2h5.5c1.9,0,3.5-1.3,3.8-3.2l0.7-4.3c1.5-0.5,2.9-1,4.2-1.7l3.6,2.6
		c0.6,0.5,1.4,0.7,2.2,0.7c1,0,2-0.4,2.7-1.1l3.9-3.9c1.3-1.3,1.5-3.4,0.4-4.9l-2.6-3.6c0.7-1.4,1.3-2.8,1.7-4.2l4.3-0.7
		c1.8-0.3,3.2-1.9,3.2-3.8v-5.4C125.1,51.6,123.7,50,121.9,49.7z"/>
</g>
</svg>