<svg version="1.1" id="Calque_1" xmlns="http://www.w3.org/2000/svg" x="0px" y="0px"
     viewBox="0 0 150 97.3" style="enable-background:new 0 0 150 97.3;" xml:space="preserve">
<style type="text/css">
	.st0 { fill: #FCC641; }
	.st1 { fill: none; stroke: currentColor; stroke-width: 6; stroke-linecap: round; stroke-linejoin: round; }
	.st2 { fill: none; stroke: currentColor; stroke-width: 5; stroke-linecap: round; stroke-linejoin: round; }
</style>
    <path id="Tracé_185" class="st0" d="M32,0L18.5,13.5l26.1,26.1L18.5,65.7L32,79.2l39.6-39.6L32,0z"/>
    <g>
	<g>
		<path class="st1" d="M44.4,74.6L44.4,74.6c0.3-0.4,0.6-0.8,0.9-1.2c0.3-0.4,0.7-0.7,1.1-1s0.8-0.5,1.3-0.7
			c0.5-0.2,0.9-0.4,1.4-0.5c0.5-0.1,1-0.2,1.5-0.2c0.5,0,1,0,1.5,0.1c0.5,0.1,1,0.2,1.4,0.4c0.5,0.2,0.9,0.4,1.3,0.7L65,78.9
			c0.4,0.3,0.8,0.6,1.2,0.9c0.4,0.3,0.7,0.7,1,1.1c0.3,0.4,0.5,0.8,0.7,1.3c0.2,0.5,0.4,0.9,0.5,1.4c0.1,0.5,0.2,1,0.2,1.5
			c0,0.5,0,1-0.1,1.5c-0.1,0.5-0.2,1-0.4,1.4c-0.2,0.5-0.4,0.9-0.7,1.3c-0.3,0.4-0.6,0.8-0.9,1.2c-0.3,0.4-0.7,0.7-1.1,1
			c-0.4,0.3-0.8,0.5-1.3,0.7c-0.5,0.2-0.9,0.4-1.4,0.5c-0.5,0.1-1,0.2-1.5,0.2c-0.5,0-1,0-1.5-0.1s-1-0.2-1.4-0.4
			c-0.5-0.2-0.9-0.4-1.3-0.7l-10.1-6.5c-0.4-0.3-0.8-0.6-1.2-0.9c-0.4-0.3-0.7-0.7-1-1.1c-0.3-0.4-0.5-0.8-0.7-1.3
			c-0.2-0.5-0.4-0.9-0.5-1.4c-0.1-0.5-0.2-1-0.2-1.5c0-0.5,0-1,0.1-1.5c0.1-0.5,0.2-1,0.4-1.4C43.9,75.5,44.1,75.1,44.4,74.6z"/>
        <path class="st1" d="M99.6,63c-0.1-0.2,0,0.1-0.1-0.1c-1.3-1.9-8.1-2.8-11.5-4.5c-3.6-1.8-6.5-6.9-14.7-6.9
			c-8.1,0-19.1,16.3-19.1,16.3l16.3,10.5c0,0,0.5-1,2.2-2.3c1.7-1.3,3.7,0.2,6.1,1c2.5,0.7,8.1,3.3,12.2,3.3c4.1,0,6.4-2.1,6.4-2.1
			l21.6-16.3c0,0,3.1-1.6,1.7-4c-1.4-2.4-4.4-0.9-4.4-0.9s-16.2,8-16.7,8.1C99.4,65.2,100.3,64.1,99.6,63z"/>
        <path class="st1" d="M81.8,63.5c0,0,10.7,4.5,14.4,3.7c3.6-0.7,3.9-2.4,3.4-4.4"/>
	</g>
        <g>
		<circle id="Ellipse_73_00000011711941007695008410000008166546781085802139_" class="st2" cx="71.9" cy="28.5" r="12.3"/>
            <circle id="Ellipse_74_00000093861488149960387810000000462536992643595430_" class="st2" cx="114.5" cy="28.5" r="12.3"/>
            <path id="Tracé_660_00000154401154586265006020000007256458398623982513_" class="st2" d="M99.1,3.4h6l10.3,27"/>
            <path id="Tracé_661_00000083047733673506685230000017126246279113923214_" class="st2" d="M77.6,8h6L92,30.4"/>
            <polyline id="Ligne_154_00000096049597532748223620000012010324156963423930_" class="st2" points="114.5,28.5 72.6,28.5
			85.5,12.9 		"/>
            <path id="Tracé_672_00000082338153816383319330000017260847901902310323_" class="st2" d="M97,31.4c0,1.9-1.6,3.5-3.5,3.5
			c-1.9,0-3.5-1.6-3.5-3.5c0-1.9,1.6-3.5,3.5-3.5c0,0,0,0,0,0C95.5,27.9,97,29.5,97,31.4z"/>
	</g>
</g>
</svg>