<svg width="115" height="84" viewBox="0 0 115 84" fill="none" xmlns="http://www.w3.org/2000/svg">
<g clip-path="url(#clip0_59_284)">
<path d="M41.94 4.77064e-08C50.2354 -0.000395515 58.3446 2.4591 65.2422 7.06746C72.1397 11.6758 77.5159 18.2261 80.6907 25.8899C83.8655 33.5537 84.6964 41.9868 83.0784 50.1229C81.4604 58.2589 77.466 65.7325 71.6005 71.5984C65.735 77.4643 58.2618 81.4592 50.1258 83.0778C41.9899 84.6964 33.5567 83.8661 25.8926 80.6918C18.2286 77.5176 11.678 72.1419 7.06913 65.2447C2.46027 58.3474 0.000197983 50.2384 1.90772e-07 41.943C-0.000525138 36.4351 1.0839 30.981 3.19136 25.8922C5.29882 20.8034 8.38803 16.1795 12.2826 12.2847C16.1771 8.38988 20.8008 5.30034 25.8894 3.19251C30.9781 1.08469 36.4321 -0.000131309 41.94 4.77064e-08Z" fill="#51B1B0"/>
<path d="M47.0776 41.9421L110.266 41.9421" stroke="currentColor" stroke-width="6" stroke-linecap="round"/>
<path d="M89.1932 19.144L111.993 41.9441L89.1932 64.744" stroke="currentColor" stroke-width="6" stroke-linecap="round" stroke-linejoin="round"/>
</g>
<defs>
<clipPath id="clip0_59_284">
<rect width="114.99" height="83.883" fill="white"/>
</clipPath>
</defs>
</svg>
