<svg width="150" height="150" viewBox="0 0 150 150" fill="none" xmlns="http://www.w3.org/2000/svg">
<path d="M54.48 35.531C77.68 35.531 96.3801 54.331 96.3801 77.431C96.3801 100.631 77.58 119.331 54.48 119.331C31.38 119.331 12.5801 100.531 12.5801 77.431C12.5801 54.331 31.38 35.531 54.48 35.531Z" fill="#51B1B0"/>
<path d="M64.441 48.687C70.1848 48.687 74.841 44.0307 74.841 38.287C74.841 32.5432 70.1848 27.887 64.441 27.887C58.6973 27.887 54.041 32.5432 54.041 38.287C54.041 44.0307 58.6973 48.687 64.441 48.687Z" stroke="currentColor" stroke-width="5" stroke-linecap="round" stroke-linejoin="round"/>
<path d="M123.642 48.687C129.386 48.687 134.042 44.0307 134.042 38.287C134.042 32.5432 129.386 27.887 123.642 27.887C117.898 27.887 113.242 32.5432 113.242 38.287C113.242 44.0307 117.898 48.687 123.642 48.687Z" stroke="currentColor" stroke-width="5" stroke-linecap="round" stroke-linejoin="round"/>
<path d="M92.8414 46.987C98.5852 46.987 103.241 42.3308 103.241 36.587C103.241 30.8433 98.5852 26.187 92.8414 26.187C87.0976 26.187 82.4414 30.8433 82.4414 36.587C82.4414 42.3308 87.0976 46.987 92.8414 46.987Z" stroke="currentColor" stroke-width="5" stroke-linecap="round" stroke-linejoin="round"/>
<path d="M73.4418 55.687C72.9418 55.287 72.3418 55.187 71.7418 55.187C70.7418 55.187 68.9418 57.887 64.4418 57.887C59.9418 57.887 59.1418 55.287 58.0418 55.087C56.9418 54.887 52.6418 56.787 50.6418 60.087C49.5418 61.787 48.7418 63.687 48.3418 65.687L49.4418 83.487C49.7418 84.787 50.7418 85.687 52.0418 85.987C52.8418 86.187 53.5418 86.187 54.3418 86.187" stroke="currentColor" stroke-width="5" stroke-linecap="round" stroke-linejoin="round"/>
<path d="M54.2422 65.9871L54.5422 86.7871L55.8422 115.387" stroke="currentColor" stroke-width="5" stroke-linecap="round" stroke-linejoin="round"/>
<path d="M64.4414 85.287L64.5414 115.387" stroke="currentColor" stroke-width="5" stroke-linecap="round" stroke-linejoin="round"/>
<path d="M74.3422 89.387L73.2422 115.387" stroke="currentColor" stroke-width="5" stroke-linecap="round" stroke-linejoin="round"/>
<path d="M114.744 55.733C115.244 55.333 115.844 55.233 116.444 55.233C117.444 55.233 119.244 57.933 123.744 57.933C128.244 57.933 129.044 55.333 130.144 55.133C131.244 54.933 135.544 56.833 137.544 60.133C138.644 61.833 139.444 63.733 139.844 65.733L138.744 83.533C138.444 84.833 137.444 85.733 136.144 86.033C135.344 86.233 134.644 86.233 133.844 86.233" stroke="currentColor" stroke-width="5" stroke-linecap="round" stroke-linejoin="round"/>
<path d="M133.844 65.933L133.544 86.733L132.244 115.333" stroke="currentColor" stroke-width="5" stroke-linecap="round" stroke-linejoin="round"/>
<path d="M123.745 85.333L123.645 115.433" stroke="currentColor" stroke-width="5" stroke-linecap="round" stroke-linejoin="round"/>
<path d="M113.844 89.333L114.944 115.433" stroke="currentColor" stroke-width="5" stroke-linecap="round" stroke-linejoin="round"/>
<path d="M93.4238 57.933C97.9238 57.933 98.7238 55.333 99.8238 55.133C100.924 54.933 105.224 56.833 107.224 60.133C108.324 61.833 109.124 63.733 109.524 65.733L108.524 83.533C108.224 84.833 107.224 85.733 105.924 86.033C105.124 86.233 104.424 86.233 103.624 86.233" stroke="currentColor" stroke-width="5" stroke-linecap="round" stroke-linejoin="round"/>
<path d="M103.623 65.933L103.323 86.733L102.023 115.333" stroke="currentColor" stroke-width="5" stroke-linecap="round" stroke-linejoin="round"/>
<path d="M93.5242 85.333L93.3242 115.433" stroke="currentColor" stroke-width="5" stroke-linecap="round" stroke-linejoin="round"/>
<path d="M93.4574 57.933C88.9574 57.933 88.1574 55.333 87.0574 55.133C85.9574 54.933 81.6574 56.833 79.6574 60.133C78.5574 61.833 77.7574 63.733 77.3574 65.733L78.4574 83.533C78.7574 84.833 79.7574 85.733 81.0574 86.033C81.8574 86.233 82.5574 86.233 83.3574 86.233" stroke="currentColor" stroke-width="5" stroke-linecap="round" stroke-linejoin="round"/>
<path d="M83.2578 65.933L83.5578 86.733L84.8578 115.333" stroke="currentColor" stroke-width="5" stroke-linecap="round" stroke-linejoin="round"/>
</svg>
