<svg width="150" height="150" viewBox="0 0 150 150" fill="none" xmlns="http://www.w3.org/2000/svg">
<path d="M51.3809 33.083C74.5809 33.083 93.2809 51.883 93.2809 74.983C93.2809 98.183 74.4809 116.883 51.3809 116.883C28.1809 116.883 9.48087 98.083 9.48087 74.983C9.38087 51.883 28.1809 33.083 51.3809 33.083Z" fill="#51B1B0"/>
<path d="M140.667 37.7941H97.9668V80.4941H140.667V37.7941Z" stroke="currentColor" stroke-width="5" stroke-linecap="round" stroke-linejoin="round"/>
<path d="M85.0475 91.877V66.177C72.4475 68.577 64.2475 80.877 66.6475 93.477C69.0475 106.077 81.3475 114.277 93.9475 111.877C103.147 110.077 110.347 102.877 112.247 93.677H86.8475C85.8475 93.677 85.0475 92.877 85.0475 91.877Z" stroke="currentColor" stroke-width="5" stroke-linecap="round" stroke-linejoin="round"/>
</svg>
