<svg width="200" height="150" viewBox="0 0 200 150" fill="none" xmlns="http://www.w3.org/2000/svg">
<path d="M60.4996 38.567C83.6996 38.567 102.4 57.367 102.4 80.467C102.4 103.567 83.5996 122.367 60.4996 122.367C37.3996 122.367 18.5996 103.567 18.5996 80.467C18.5996 57.367 37.2996 38.567 60.4996 38.567Z" fill="#51B1B0"/>
<path d="M179.299 116.9L129.299 124V61.1L179.299 54V116.9Z" stroke="currentColor" stroke-width="5" stroke-linecap="round" stroke-linejoin="round"/>
<path d="M72.6992 116.2L122.699 123.3V60.4L72.6992 53.3V116.2Z" stroke="currentColor" stroke-width="5" stroke-linecap="round" stroke-linejoin="round"/>
<path d="M138.398 72.4L169.598 67.1" stroke="currentColor" stroke-width="5" stroke-linecap="round" stroke-linejoin="round"/>
<path d="M138.398 83L169.598 77.7" stroke="currentColor" stroke-width="5" stroke-linecap="round" stroke-linejoin="round"/>
<path d="M138.398 93.2L169.598 87.8" stroke="currentColor" stroke-width="5" stroke-linecap="round" stroke-linejoin="round"/>
<path d="M106.699 54.7C102.699 43.6 108.499 31.3 119.599 27.3C130.699 23.3 142.999 29 146.999 40.1C148.699 44.8 148.699 49.9 146.999 54.6" stroke="currentColor" stroke-width="5" stroke-linecap="round" stroke-linejoin="round"/>
<path d="M122.698 41.6C122.698 43.4 121.798 44.9001 120.798 44.9001C119.798 44.9001 118.898 43.4 118.898 41.6C118.898 39.8 119.798 38.3 120.798 38.3C121.798 38.3 122.698 39.7 122.698 41.6Z" fill="currentColor"/>
<path d="M135.499 41.6C135.499 43.4 134.599 44.9001 133.599 44.9001C132.599 44.9001 131.699 43.4 131.699 41.6C131.699 39.8 132.599 38.3 133.599 38.3C134.599 38.3 135.499 39.7 135.499 41.6Z" fill="currentColor"/>
<path d="M119.799 50.8C119.799 50.8 126.299 58.2 133.499 50.8" stroke="currentColor" stroke-width="5" stroke-linecap="round" stroke-linejoin="round"/>
<path d="M97.6988 84.6C97.4988 82.8 98.7988 75.9 99.1988 74.9C99.4988 73.9 100.699 68.7 97.2988 69C93.8988 69.3 89.9988 82.4 88.7988 84.3C87.5988 86.3 83.2988 87.9 83.2988 87.9L84.0988 105.1C84.0988 105.1 101.099 109 106.199 107.4C111.299 105.8 108.399 102.4 108.399 102.4C109.799 102.7 111.199 101.9 111.699 100.7C112.499 98.5 109.799 96.6 109.799 96.6C109.799 96.6 112.499 96.4 112.499 94C112.499 91.6 109.799 91.2 109.799 91.2C111.299 90.5 112.399 89.1 112.499 87.4C112.499 84.7 108.099 84.6 108.099 84.6L95.5988 86.1" stroke="currentColor" stroke-width="5" stroke-linecap="round" stroke-linejoin="round"/>
</svg>
