<svg width="200" height="150" viewBox="0 0 200 150" fill="none" xmlns="http://www.w3.org/2000/svg">
<path d="M49.4 39.199C72.6 39.199 91.3 57.999 91.3 81.099C91.3 104.299 72.5 122.999 49.4 122.999C26.2 122.999 7.5 104.199 7.5 81.099C7.5 57.999 26.2 39.199 49.4 39.199Z" fill="#51B1B0"/>
<path d="M53.1508 122C63.4233 122 71.7508 113.673 71.7508 103.4C71.7508 93.1276 63.4233 84.8 53.1508 84.8C42.8783 84.8 34.5508 93.1276 34.5508 103.4C34.5508 113.673 42.8783 122 53.1508 122Z" stroke="currentColor" stroke-width="5" stroke-linecap="round" stroke-linejoin="round"/>
<path d="M167.85 122C178.122 122 186.45 113.673 186.45 103.4C186.45 93.1276 178.122 84.8 167.85 84.8C157.577 84.8 149.25 93.1276 149.25 103.4C149.25 113.673 157.577 122 167.85 122Z" stroke="currentColor" stroke-width="5" stroke-linecap="round" stroke-linejoin="round"/>
<path d="M147.352 72.3H156.552L169.252 106.3" stroke="currentColor" stroke-width="5" stroke-linecap="round" stroke-linejoin="round"/>
<path d="M114.852 72.3H124.052L136.752 106.3" stroke="currentColor" stroke-width="5" stroke-linecap="round" stroke-linejoin="round"/>
<path d="M81.6504 72.3H90.8504L103.55 106.3" stroke="currentColor" stroke-width="5" stroke-linecap="round" stroke-linejoin="round"/>
<path d="M52.25 103.4H167.85" stroke="currentColor" stroke-width="5" stroke-linecap="round" stroke-linejoin="round"/>
<path d="M76.9512 36.8C76.9512 39.7 79.3512 42.1 82.2512 42.1C85.1512 42.1 87.5512 39.7 87.5512 36.8C87.5512 33.9 85.1512 31.5 82.2512 31.5C79.3512 31.6 76.9512 33.9 76.9512 36.8Z" stroke="currentColor" stroke-width="5" stroke-linecap="round" stroke-linejoin="round"/>
<path d="M105.451 31.2C105.451 34.1 107.851 36.5 110.751 36.5C113.651 36.5 116.051 34.1 116.051 31.2C116.051 28.3 113.651 25.9 110.751 25.9C107.851 25.9 105.451 28.3 105.451 31.2Z" stroke="currentColor" stroke-width="5" stroke-linecap="round" stroke-linejoin="round"/>
<path d="M139.051 37.6C139.051 40.5 141.451 42.9001 144.351 42.9001C147.251 42.9001 149.651 40.5 149.651 37.6C149.651 34.7 147.251 32.3 144.351 32.3C141.451 32.3 139.051 34.7 139.051 37.6Z" stroke="currentColor" stroke-width="5" stroke-linecap="round" stroke-linejoin="round"/>
<path d="M71.7512 46.5L55.9512 56.9L67.9512 65.7L74.7512 58.3L86.9512 72.3H90.2512L76.9512 50.4C76.9512 50.4 75.8512 45.1 71.7512 46.5Z" stroke="currentColor" stroke-width="5" stroke-linecap="round" stroke-linejoin="round"/>
<path d="M99.75 40.2001C99.75 40.2001 96.55 39.4001 93.05 45.5001C90.75 49.7001 88.95 54.2001 87.75 58.9001L103.45 60.1001C103.45 60.1001 111.35 41.1001 99.75 40.2001Z" stroke="currentColor" stroke-width="5" stroke-linecap="round" stroke-linejoin="round"/>
<path d="M60.2515 60.1C60.2515 60.1 53.6515 64.5 55.9515 69.3C58.5515 74.8 58.5515 74.7 76.7515 107.2H83.1515L67.2515 70L67.9515 65.8L60.2515 60.1Z" stroke="currentColor" stroke-width="5" stroke-linecap="round" stroke-linejoin="round"/>
<path d="M100.352 47.1L109.252 60.1L122.152 73.9" stroke="currentColor" stroke-width="5" stroke-linecap="round" stroke-linejoin="round"/>
<path d="M136.551 50.2L154.451 67.9C154.451 67.9 157.951 72.7 156.351 73.2C154.751 73.7 151.551 73.2 151.551 73.2L150.451 68.3L132.451 55C131.051 54 130.751 52 131.751 50.6C132.751 49.2 134.751 48.9 136.151 49.9C136.351 49.9 136.451 50 136.551 50.2Z" fill="currentColor"/>
<path d="M110.051 107.8C110.051 110.7 107.651 113.1 104.751 113.1C101.851 113.1 99.4512 110.7 99.4512 107.8C99.4512 104.9 101.851 102.5 104.751 102.5C107.651 102.5 110.051 104.9 110.051 107.8Z" stroke="currentColor" stroke-width="5" stroke-linecap="round" stroke-linejoin="round"/>
<path d="M147.35 107.8C147.35 110.7 144.95 113.1 142.05 113.1C139.15 113.1 136.75 110.7 136.75 107.8C136.75 104.9 139.15 102.5 142.05 102.5C144.95 102.5 147.35 104.9 147.35 107.8Z" stroke="currentColor" stroke-width="5" stroke-linecap="round" stroke-linejoin="round"/>
<path d="M80.9516 107.8C80.9516 110.7 78.5516 113.1 75.6516 113.1C72.7516 113.1 70.3516 110.7 70.3516 107.8C70.3516 104.9 72.7516 102.5 75.6516 102.5C78.5516 102.5 80.9516 104.9 80.9516 107.8Z" stroke="currentColor" stroke-width="5" stroke-linecap="round" stroke-linejoin="round"/>
<path d="M90.2503 59.1C90.2503 59.1 85.0503 67 91.9503 69C98.8503 71 102.65 72.3 102.65 72.3L98.2503 95.6L102.25 96L115.55 72.3L102.65 60.1L90.2503 59.1Z" stroke="currentColor" stroke-width="5" stroke-linecap="round" stroke-linejoin="round"/>
<path d="M134.05 45.4L141.25 53.9L136.65 58.3V65.5L122.15 64L134.05 45.4Z" stroke="currentColor" stroke-width="5" stroke-linecap="round" stroke-linejoin="round"/>
<path d="M128.651 64.9C128.651 64.9 127.051 67 128.951 72.3C130.851 77.6 142.151 106.3 142.151 106.3" stroke="currentColor" stroke-width="5" stroke-linecap="round" stroke-linejoin="round"/>
<path d="M136.75 65.6L153.95 69.4L137.35 89.3" stroke="currentColor" stroke-width="5" stroke-linecap="round" stroke-linejoin="round"/>
<path d="M109.551 83L114.851 108.9L111.251 110.1L103.551 93.7" stroke="currentColor" stroke-width="5" stroke-linecap="round" stroke-linejoin="round"/>
<path d="M71.3504 99.3C69.3504 102.1 68.5504 103.2 68.5504 103.2H58.1504L64.6504 92.3" stroke="currentColor" stroke-width="5" stroke-linecap="round" stroke-linejoin="round"/>
<path d="M67.5508 68.2001C67.5508 68.2001 83.4508 66.7001 83.9508 70.3001C84.2508 72.2001 80.8508 82.1001 77.4508 91.1001" stroke="currentColor" stroke-width="5" stroke-linecap="round" stroke-linejoin="round"/>
</svg>
