<?xml version="1.0" encoding="UTF-8"?>
<svg id="Calque_1" xmlns="http://www.w3.org/2000/svg" version="1.1" viewBox="0 0 150 97.3">
  <!-- Generator: Adobe Illustrator 29.7.1, SVG Export Plug-In . SVG Version: 2.1.1 Build 8)  -->
  <defs>
    <style>
      .st0 {
        fill: none;
        stroke: currentColor;
        stroke-linecap: round;
        stroke-linejoin: round;
        stroke-width: 4.3px;
      }

      .st1 {
        isolation: isolate;
      }

      .st2 {
        fill: #fcc641;
      }

      .st3 {
        fill: currentColor;
      }
    </style>
  </defs>
  <circle class="st2" cx="36" cy="54.3" r="35.4"/>
  <g class="st1">
    <g>
      <path class="st0" d="M39.6,56.6c.5,0,1,0,1.5,0,.5,0,1,0,1.5.2.5,0,1,.2,1.4.4.5,0,.9.3,1.4.5s.9.4,1.3.6c.4.2.9.5,1.3.8.4.3.8.6,1.2.9.4.3.7.6,1.1,1,.3.3.7.7,1,1.1s.6.8.9,1.2c.3.4.5.8.8,1.3.2.4.4.9.6,1.3.2.5.4.9.5,1.4s.3.9.4,1.4c0,.5.2,1,.2,1.5s0,1,0,1.5,0,1,0,1.5c0,.5,0,1-.2,1.5,0,.5-.2,1-.4,1.4,0,.5-.3.9-.5,1.4s-.4.9-.6,1.3c-.2.4-.5.9-.8,1.3s-.6.8-.9,1.2c-.3.4-.6.7-1,1.1-.3.3-.7.7-1.1,1-.4.3-.8.6-1.2.9s-.8.5-1.3.8c-.4.2-.9.4-1.3.6-.5.2-.9.4-1.4.5s-.9.3-1.4.4-1,.2-1.5.2-1,0-1.5,0-1,0-1.5,0c-.5,0-1,0-1.5-.2s-1-.2-1.4-.4c-.5,0-.9-.3-1.4-.5s-.9-.4-1.3-.6-.9-.5-1.3-.8-.8-.6-1.2-.9-.7-.6-1.1-1c-.3-.3-.7-.7-1-1.1s-.6-.8-.9-1.2c-.3-.4-.5-.8-.8-1.3s-.4-.9-.6-1.3c-.2-.5-.4-.9-.5-1.4s-.3-.9-.4-1.4-.2-1-.2-1.5-.1-1-.1-1.5,0-1,.1-1.5c0-.5.1-1,.2-1.5s.2-1,.4-1.4c.1-.5.3-.9.5-1.4s.4-.9.6-1.3.5-.9.8-1.3c.3-.4.6-.8.9-1.2s.6-.7,1-1.1c.3-.3.7-.7,1.1-1s.8-.6,1.2-.9c.4-.3.8-.5,1.3-.8.4-.2.9-.4,1.3-.6.5-.2.9-.4,1.4-.5s.9-.3,1.4-.4c.5,0,1-.2,1.5-.2.6,0,1.1,0,1.5,0Z"/>
      <path class="st0" d="M132.2,56.6c.5,0,1,0,1.5,0,.5,0,1,0,1.5.2.5,0,1,.2,1.4.4.5,0,.9.3,1.4.5s.9.4,1.3.6c.4.2.9.5,1.3.8.4.3.8.6,1.2.9.4.3.7.6,1.1,1,.3.3.7.7,1,1.1s.6.8.9,1.2c.3.4.5.8.8,1.3.2.4.4.9.6,1.3.2.5.4.9.5,1.4s.3.9.4,1.4c.1.5.2,1,.2,1.5s.1,1,.1,1.5,0,1-.1,1.5c0,.5-.1,1-.2,1.5-.1.5-.2,1-.4,1.4-.1.5-.3.9-.5,1.4s-.4.9-.6,1.3c-.2.4-.5.9-.8,1.3s-.6.8-.9,1.2c-.3.4-.6.7-1,1.1-.3.3-.7.7-1.1,1-.4.3-.8.6-1.2.9s-.8.5-1.3.8c-.4.2-.9.4-1.3.6-.5.2-.9.4-1.4.5s-.9.3-1.4.4-1,.2-1.5.2-1,0-1.5,0-1,0-1.5,0c-.5,0-1,0-1.5-.2s-1-.2-1.4-.4c-.5,0-.9-.3-1.4-.5s-.9-.4-1.3-.6-.9-.5-1.3-.8-.8-.6-1.2-.9-.7-.6-1.1-1-.7-.7-1-1.1-.6-.8-.9-1.2c-.3-.4-.5-.8-.8-1.3-.2-.4-.4-.9-.6-1.3-.2-.5-.4-.9-.5-1.4s-.3-.9-.4-1.4-.2-1-.2-1.5,0-1,0-1.5,0-1,0-1.5c0-.5,0-1,.2-1.5s.2-1,.4-1.4c0-.5.3-.9.5-1.4s.4-.9.6-1.3.5-.9.8-1.3c.3-.4.6-.8.9-1.2s.6-.7,1-1.1c.3-.3.7-.7,1.1-1s.8-.6,1.2-.9c.4-.3.8-.5,1.3-.8.4-.2.9-.4,1.3-.6.5-.2.9-.4,1.4-.5.5,0,.9-.3,1.4-.4.5,0,1-.2,1.5-.2.6,0,1,0,1.5,0Z"/>
      <polyline class="st0" points="115.7 46.5 123.1 46.5 133.4 73.9"/>
      <polyline class="st0" points="89.5 46.5 96.9 46.5 107.1 73.9"/>
      <polyline class="st0" points="62.6 46.5 70 46.5 80.3 73.9"/>
      <line class="st0" x1="39" y1="71.6" x2="132.2" y2="71.6"/>
      <path class="st0" d="M58.7,16.1c0,2.3,1.9,4.3,4.3,4.3s4.3-1.9,4.3-4.3-1.9-4.3-4.3-4.3c-2.4,0-4.3,2-4.3,4.3Z"/>
      <path class="st0" d="M80.2,11.8c0,2.3,1.9,4.3,4.3,4.3s4.3-1.9,4.3-4.3-1.9-4.3-4.3-4.3c-2.4,0-4.3,2-4.3,4.3Z"/>
      <path class="st0" d="M107.8,16.3c0,2.3,1.9,4.3,4.3,4.3s4.3-1.9,4.3-4.3-1.9-4.3-4.3-4.3c-2.4,0-4.3,2-4.3,4.3Z"/>
      <path class="st0" d="M54.7,25.7l-12.7,8.4,9.7,7.1,5.5-6,9.8,11.2h2.7l-10.8-17.6s-.9-4.3-4.2-3.1Z"/>
      <path class="st0" d="M77.3,20.5s-2.6-.6-5.4,4.3-4.3,10.8-4.3,10.8l12.7,1s6.4-15.3-3-16.1Z"/>
      <path class="st0" d="M45.4,36.6s-5.3,3.6-3.5,7.4c2.1,4.4,2.1,4.3,16.8,30.6h5.3l-12.9-30,.6-3.4-6.3-4.6Z"/>
      <polyline class="st0" points="77 24 84.3 34.4 94.6 45.5"/>
      <path class="st3" d="M106.3,28.7l14.4,14.3s2.8,3.8,1.6,4.3c-1.3.4-3.8,0-3.8,0l-.9-4-14.6-10.7c-1.2-.9-1.4-2.6-.4-3.7.9-1.1,2.6-1.2,3.7-.2"/>
      <path class="st0" d="M85.6,75.1c0,2.3-1.9,4.2-4.2,4.2s-4.2-1.9-4.2-4.2,1.9-4.2,4.2-4.2,4.2,1.9,4.2,4.2Z"/>
      <path class="st0" d="M115.7,75.1c0,2.3-1.9,4.2-4.2,4.2s-4.2-1.9-4.2-4.2,1.9-4.2,4.2-4.2,4.2,1.9,4.2,4.2Z"/>
      <path class="st0" d="M62.1,75.1c0,2.3-1.9,4.2-4.2,4.2s-4.2-1.9-4.2-4.2,1.9-4.2,4.2-4.2,4.2,1.9,4.2,4.2Z"/>
      <path class="st0" d="M69.7,35.8s-4.2,6.4,1.3,8c5.6,1.6,8.6,2.7,8.6,2.7l-3.6,18.8,3.2.3,10.8-19.1-10.4-9.8-9.9-.9Z"/>
      <polygon class="st0" points="105 24.8 110.8 31.7 107.1 35.2 107.1 41.1 95.3 39.8 105 24.8"/>
      <polygon class="st3" points="119.6 77.4 119.6 79.4 113.4 80.8 110.1 74.7 112.9 73 115 77.4 119.6 77.4"/>
      <path class="st0" d="M100.6,40.5s-1.3,1.7.2,5.9,10.6,27.5,10.6,27.5"/>
      <polyline class="st0" points="107.1 41.1 121 44.1 107.6 60.2"/>
      <polyline class="st0" points="85.2 55.1 89.5 76.1 86.5 77.1 80.3 63.8"/>
      <path class="st0" d="M56,70.3c-1.2,3.1-1.6,4.3-1.6,4.3h-6.1l3.8-12"/>
      <path class="st0" d="M51.3,43.2s12.8-1.2,13.3,1.7c.2,1.5-2.5,9.5-5.2,16.8"/>
      <polygon class="st3" points="76.4 65.3 75 67.9 81.4 69.1 79.1 66.1 76.4 65.3"/>
    </g>
  </g>
</svg>