<svg version="1.1" id="Calque_1" xmlns="http://www.w3.org/2000/svg" x="0px" y="0px"
	 viewBox="0 0 150 97.3" style="enable-background:new 0 0 150 97.3;" xml:space="preserve">
<style type="text/css">
	.st0 { fill: #FCC641; }
	.st1 { fill: none; stroke: currentColor; stroke-width: 6; stroke-linecap: round; stroke-linejoin: round; }
</style>
<path id="Tracé_185" class="st0" d="M32,0L18.5,13.5l26.1,26.1L18.5,65.7L32,79.2l39.6-39.6L32,0z"/>
<g>
	<path class="st1" d="M56.8,73.8L56.8,73.8c0.2-0.4,0.5-0.7,0.8-1c0.3-0.3,0.6-0.6,1-0.8s0.7-0.4,1.1-0.6c0.4-0.2,0.8-0.3,1.2-0.4
		c0.4-0.1,0.8-0.1,1.3-0.1c0.4,0,0.8,0,1.3,0.1c0.4,0.1,0.8,0.2,1.2,0.3c0.4,0.2,0.8,0.3,1.1,0.6l8.7,5.6c0.4,0.2,0.7,0.5,1,0.8
		c0.3,0.3,0.6,0.6,0.8,1c0.2,0.3,0.4,0.7,0.6,1.1c0.2,0.4,0.3,0.8,0.4,1.2c0.1,0.4,0.1,0.8,0.1,1.3c0,0.4,0,0.8-0.1,1.3
		c-0.1,0.4-0.2,0.8-0.3,1.2c-0.2,0.4-0.3,0.8-0.6,1.1c-0.2,0.4-0.5,0.7-0.8,1c-0.3,0.3-0.6,0.6-1,0.8s-0.7,0.4-1.1,0.6
		c-0.4,0.2-0.8,0.3-1.2,0.4c-0.4,0.1-0.8,0.1-1.3,0.1c-0.4,0-0.8,0-1.3-0.1s-0.8-0.2-1.2-0.3c-0.4-0.2-0.8-0.3-1.1-0.6l-8.7-5.6
		c-0.4-0.2-0.7-0.5-1-0.8c-0.3-0.3-0.6-0.6-0.8-1c-0.2-0.3-0.4-0.7-0.6-1.1c-0.2-0.4-0.3-0.8-0.4-1.2c-0.1-0.4-0.1-0.8-0.1-1.3
		c0-0.4,0-0.8,0.1-1.3c0.1-0.4,0.2-0.8,0.3-1.2C56.4,74.5,56.6,74.2,56.8,73.8z"/>
	<path class="st1" d="M103.9,63.9c-0.1-0.2,0,0.1-0.1-0.1c-1.1-1.6-7-2.4-9.8-3.8C91,58.4,88.5,54,81.5,54c-6.9,0-16.3,14-16.3,14
		l14,9c0,0,0.4-0.9,1.8-2c1.4-1.1,3.1,0.2,5.2,0.8c2.1,0.6,6.9,2.9,10.4,2.9c3.5,0,5.4-1.8,5.4-1.8l18.4-14c0,0,2.7-1.4,1.4-3.4
		c-1.2-2-3.7-0.7-3.7-0.7s-13.8,6.8-14.3,6.9C103.8,65.8,104.5,64.8,103.9,63.9z"/>
	<path class="st1" d="M84.3,37.5v6.8c0,2.4,2,4.4,4.4,4.4h13.5v9l9-9h5c2.4,0,4.4-2,4.4-4.4V30.5c0-2.4-2-4.4-4.4-4.4h-2.8"/>
	<path class="st1" d="M75.1,8h27.6c2.4,0,4.4,2,4.4,4.4v13.8c0,2.4-2,4.4-4.4,4.4h-7v9l-9-9H75.1c-2.4,0-4.4-2-4.4-4.4V12.4
		C70.7,10,72.7,8,75.1,8z"/>
	<path class="st1" d="M88.7,64.3c0,0,9.2,3.8,12.3,3.2c3.1-0.6,3.3-2.1,2.9-3.7"/>
</g>
</svg>