<svg version="1.1" id="Calque_1" xmlns="http://www.w3.org/2000/svg" x="0px" y="0px"
	 viewBox="0 0 150 97.3" style="enable-background:new 0 0 150 97.3;" xml:space="preserve">
<style type="text/css">
	.st0 { fill: #FCC641; }
	.st1 { fill: none; stroke: currentColor; stroke-width: 5; stroke-linecap: round; stroke-linejoin: round; stroke-miterlimit: 10; }
	.st2 { fill: currentColor; }
	.st3 { fill: none; stroke: currentColor; stroke-width: 5; stroke-miterlimit: 10; }
	.st4 { fill: none; stroke: currentColor; stroke-width: 4; stroke-linecap: round; stroke-linejoin: round; }
	.st5 { fill: none; stroke: currentColor; stroke-width: 5; stroke-linecap: round; stroke-linejoin: round; }
</style>
<path id="Tracé_185" class="st0" d="M32,0L18.5,13.5l26.1,26.1L18.5,65.7L32,79.2l39.6-39.6L32,0z"/>
<g>
	<g>
		<path class="st1" d="M65.8,46.9l2.4-27.7c0-6.6,5.4-12,12-12h27.3c6.6,0,12,5.4,12,12l4,35.2c0,6.6-5.4,12-12,12H71.9"/>
		<line class="st1" x1="67.8" y1="23.2" x2="119.2" y2="23.2"/>
		<line class="st1" x1="67.8" y1="47.8" x2="119.2" y2="47.8"/>
		<line class="st1" x1="86.6" y1="14.6" x2="102.2" y2="14.6"/>
		<circle class="st2" cx="109.9" cy="57.1" r="4.2"/>
		<circle class="st2" cx="80.5" cy="57.1" r="4.2"/>
		<g>
			<path class="st3" d="M111,78.8h-6.7c-1.2,0-2.3-1-2.3-2.3v-7.4c0-1.2,1-2.3,2.3-2.3h6.7c1.2,0,2.3,1,2.3,2.3v7.4
				C113.2,77.8,112.2,78.8,111,78.8z"/>
		</g>
		<g>
			<path class="st3" d="M83.9,78.8h-6.7c-1.2,0-2.3-1-2.3-2.3v-7.4c0-1.2,1-2.3,2.3-2.3h6.7c1.2,0,2.3,1,2.3,2.3v7.4
				C86.1,77.8,85.1,78.8,83.9,78.8z"/>
		</g>
		<polyline class="st4" points="121.4,31.9 130.3,31.9 130.3,25.3 		"/>
		<path class="st2" d="M132.6,27.7H128c-1.4,0-2.6-1.2-2.6-2.6V17c0-1.4,1.2-2.6,2.6-2.6h4.6c1.4,0,2.6,1.2,2.6,2.6v8.1
			C135.2,26.5,134,27.7,132.6,27.7z"/>
		<g>
			<polyline class="st4" points="65.4,31.9 56.5,31.9 56.5,25.3 			"/>
			<path class="st2" d="M54.2,27.7h4.6c1.4,0,2.6-1.2,2.6-2.6V17c0-1.4-1.2-2.6-2.6-2.6h-4.6c-1.4,0-2.6,1.2-2.6,2.6v8.1
				C51.7,26.5,52.8,27.7,54.2,27.7z"/>
		</g>
		<path class="st2" d="M137.9,80.7h0.9c1.1,0,2-0.9,2-2V67c0-1.1-0.9-2-2-2h-0.9c-1.1,0-2,0.9-2,2v11.7
			C136,79.8,136.8,80.7,137.9,80.7z"/>
		<path class="st4" d="M148.2,69.8h-4.3v-5.6c0,0-1.1-2.9-4.7-2.9h-1.8c-3.6,0-4.7,2.9-4.7,2.9v5.6h-4.3"/>
		<line class="st4" x1="138.2" y1="61" x2="138.2" y2="50.6"/>
		<line class="st4" x1="131.8" y1="50.4" x2="144.6" y2="50.4"/>
	</g>
	<g>
		<circle id="Ellipse_69_00000168814347930013276380000004523131153281824647_" class="st5" cx="52.2" cy="46.4" r="5.8"/>
		<g id="Groupe_216_00000002369113034228649420000006264303308972454575_" transform="translate(63.082 43.946)">
			<path id="Tracé_456_00000156568081473732581340000005757258760098920087_" class="st5" d="M-10.6,14.3c2.5,0,2.9-1.4,3.6-1.5
				c0.6-0.1,3,0.9,4.1,2.8c0.6,0.9,1,2,1.3,3.1l-0.6,9.9c-0.2,0.7-0.7,1.2-1.4,1.4C-4.1,30-4.6,30-5,30"/>
			<path id="Tracé_457_00000085241422818056614200000011038930855815943055_" class="st5" d="M-4.9,18.8l-0.2,11.5l-0.7,15.8"/>

				<line id="Ligne_130_00000079483681764343150010000006144645873364377255_" class="st5" x1="-10.6" y1="29.5" x2="-10.6" y2="46.1"/>
		</g>
		<g id="Groupe_217_00000134956879554534583400000000202101909705909132_" transform="translate(47.115 43.946)">
			<path id="Tracé_458_00000151528635528205189210000018053571337522640262_" class="st5" d="M5.4,14.3c-2.5,0-2.9-1.4-3.6-1.5
				c-0.6-0.1-3,0.9-4.1,2.8c-0.6,0.9-1,2-1.3,3.1l0.6,9.9c0.2,0.7,0.7,1.2,1.4,1.4C-1.1,30-0.6,30-0.2,30"/>
			<path id="Tracé_459_00000145779819771995106690000012515263591502744710_" class="st5" d="M-0.3,18.8l0.2,11.5l0.7,15.8"/>
		</g>
	</g>
</g>
</svg>