<svg version="1.1" id="Calque_1" xmlns="http://www.w3.org/2000/svg" x="0px" y="0px"
     viewBox="0 0 150 97.3" style="enable-background:new 0 0 150 97.3;" xml:space="preserve">
<style type="text/css">
	.st0 { fill: #FCC641; }
	.st1 { enable-background: new; }
	.st2 { fill: none; stroke: currentColor; stroke-width: 5; stroke-linecap: round; stroke-linejoin: round; }
	.st3 { fill: currentColor; }
</style>
    <path id="Tracé_185" class="st0" d="M13.5,0L0,13.5l26.1,26.1L0,65.7l13.5,13.5l39.6-39.6L13.5,0z"/>
    <g>
	<g class="st1">
		<g>
			<path class="st2" d="M39.6,56.6c0.5,0,1,0,1.5,0.1c0.5,0,1,0.1,1.5,0.2c0.5,0.1,1,0.2,1.4,0.4c0.5,0.1,0.9,0.3,1.4,0.5
				c0.5,0.2,0.9,0.4,1.3,0.6c0.4,0.2,0.9,0.5,1.3,0.8c0.4,0.3,0.8,0.6,1.2,0.9c0.4,0.3,0.7,0.6,1.1,1c0.3,0.3,0.7,0.7,1,1.1
				s0.6,0.8,0.9,1.2c0.3,0.4,0.5,0.8,0.8,1.3c0.2,0.4,0.4,0.9,0.6,1.3c0.2,0.5,0.4,0.9,0.5,1.4c0.1,0.5,0.3,0.9,0.4,1.4
				c0.1,0.5,0.2,1,0.2,1.5c0,0.5,0.1,1,0.1,1.5c0,0.5,0,1-0.1,1.5c0,0.5-0.1,1-0.2,1.5c-0.1,0.5-0.2,1-0.4,1.4
				c-0.1,0.5-0.3,0.9-0.5,1.4c-0.2,0.5-0.4,0.9-0.6,1.3c-0.2,0.4-0.5,0.9-0.8,1.3c-0.3,0.4-0.6,0.8-0.9,1.2c-0.3,0.4-0.6,0.7-1,1.1
				c-0.3,0.3-0.7,0.7-1.1,1c-0.4,0.3-0.8,0.6-1.2,0.9c-0.4,0.3-0.8,0.5-1.3,0.8c-0.4,0.2-0.9,0.4-1.3,0.6c-0.5,0.2-0.9,0.4-1.4,0.5
				c-0.5,0.1-0.9,0.3-1.4,0.4c-0.5,0.1-1,0.2-1.5,0.2c-0.5,0-1,0.1-1.5,0.1c-0.5,0-1,0-1.5-0.1c-0.5,0-1-0.1-1.5-0.2
				c-0.5-0.1-1-0.2-1.4-0.4c-0.5-0.1-0.9-0.3-1.4-0.5s-0.9-0.4-1.3-0.6s-0.9-0.5-1.3-0.8c-0.4-0.3-0.8-0.6-1.2-0.9s-0.7-0.6-1.1-1
				c-0.3-0.3-0.7-0.7-1-1.1s-0.6-0.8-0.9-1.2c-0.3-0.4-0.5-0.8-0.8-1.3s-0.4-0.9-0.6-1.3c-0.2-0.5-0.4-0.9-0.5-1.4
				c-0.1-0.5-0.3-0.9-0.4-1.4c-0.1-0.5-0.2-1-0.2-1.5c0-0.5-0.1-1-0.1-1.5c0-0.5,0-1,0.1-1.5c0-0.5,0.1-1,0.2-1.5
				c0.1-0.5,0.2-1,0.4-1.4c0.1-0.5,0.3-0.9,0.5-1.4c0.2-0.5,0.4-0.9,0.6-1.3c0.2-0.4,0.5-0.9,0.8-1.3c0.3-0.4,0.6-0.8,0.9-1.2
				s0.6-0.7,1-1.1c0.3-0.3,0.7-0.7,1.1-1c0.4-0.3,0.8-0.6,1.2-0.9c0.4-0.3,0.8-0.5,1.3-0.8c0.4-0.2,0.9-0.4,1.3-0.6
				c0.5-0.2,0.9-0.4,1.4-0.5c0.5-0.1,0.9-0.3,1.4-0.4c0.5-0.1,1-0.2,1.5-0.2C38.7,56.6,39.2,56.6,39.6,56.6z"/>
            <path class="st2" d="M132.2,56.6c0.5,0,1,0,1.5,0.1c0.5,0,1,0.1,1.5,0.2c0.5,0.1,1,0.2,1.4,0.4c0.5,0.1,0.9,0.3,1.4,0.5
				c0.5,0.2,0.9,0.4,1.3,0.6c0.4,0.2,0.9,0.5,1.3,0.8c0.4,0.3,0.8,0.6,1.2,0.9c0.4,0.3,0.7,0.6,1.1,1c0.3,0.3,0.7,0.7,1,1.1
				s0.6,0.8,0.9,1.2c0.3,0.4,0.5,0.8,0.8,1.3c0.2,0.4,0.4,0.9,0.6,1.3c0.2,0.5,0.4,0.9,0.5,1.4c0.1,0.5,0.3,0.9,0.4,1.4
				c0.1,0.5,0.2,1,0.2,1.5c0,0.5,0.1,1,0.1,1.5c0,0.5,0,1-0.1,1.5c0,0.5-0.1,1-0.2,1.5c-0.1,0.5-0.2,1-0.4,1.4
				c-0.1,0.5-0.3,0.9-0.5,1.4c-0.2,0.5-0.4,0.9-0.6,1.3c-0.2,0.4-0.5,0.9-0.8,1.3c-0.3,0.4-0.6,0.8-0.9,1.2c-0.3,0.4-0.6,0.7-1,1.1
				c-0.3,0.3-0.7,0.7-1.1,1c-0.4,0.3-0.8,0.6-1.2,0.9c-0.4,0.3-0.8,0.5-1.3,0.8c-0.4,0.2-0.9,0.4-1.3,0.6c-0.5,0.2-0.9,0.4-1.4,0.5
				c-0.5,0.1-0.9,0.3-1.4,0.4c-0.5,0.1-1,0.2-1.5,0.2c-0.5,0-1,0.1-1.5,0.1c-0.5,0-1,0-1.5-0.1c-0.5,0-1-0.1-1.5-0.2
				c-0.5-0.1-1-0.2-1.4-0.4c-0.5-0.1-0.9-0.3-1.4-0.5c-0.5-0.2-0.9-0.4-1.3-0.6s-0.9-0.5-1.3-0.8c-0.4-0.3-0.8-0.6-1.2-0.9
				s-0.7-0.6-1.1-1c-0.3-0.3-0.7-0.7-1-1.1s-0.6-0.8-0.9-1.2c-0.3-0.4-0.5-0.8-0.8-1.3c-0.2-0.4-0.4-0.9-0.6-1.3
				c-0.2-0.5-0.4-0.9-0.5-1.4c-0.1-0.5-0.3-0.9-0.4-1.4c-0.1-0.5-0.2-1-0.2-1.5c0-0.5-0.1-1-0.1-1.5c0-0.5,0-1,0.1-1.5
				c0-0.5,0.1-1,0.2-1.5c0.1-0.5,0.2-1,0.4-1.4c0.1-0.5,0.3-0.9,0.5-1.4c0.2-0.5,0.4-0.9,0.6-1.3c0.2-0.4,0.5-0.9,0.8-1.3
				c0.3-0.4,0.6-0.8,0.9-1.2s0.6-0.7,1-1.1c0.3-0.3,0.7-0.7,1.1-1c0.4-0.3,0.8-0.6,1.2-0.9c0.4-0.3,0.8-0.5,1.3-0.8
				c0.4-0.2,0.9-0.4,1.3-0.6c0.5-0.2,0.9-0.4,1.4-0.5c0.5-0.1,0.9-0.3,1.4-0.4c0.5-0.1,1-0.2,1.5-0.2
				C131.3,56.6,131.7,56.6,132.2,56.6z"/>
            <polyline class="st2" points="115.7,46.5 123.1,46.5 133.4,73.9 			"/>
            <polyline class="st2" points="89.5,46.5 96.9,46.5 107.1,73.9 			"/>
            <polyline class="st2" points="62.6,46.5 70,46.5 80.3,73.9 			"/>
            <line class="st2" x1="39" y1="71.6" x2="132.2" y2="71.6"/>
            <path class="st2" d="M57.1,20.5c0,2.3,1.9,4.3,4.3,4.3c2.3,0,4.3-1.9,4.3-4.3c0-2.3-1.9-4.3-4.3-4.3C59,16.3,57.1,18.2,57.1,20.5
				z"/>
            <path class="st2" d="M79.6,14.9c0,2.3,1.9,4.3,4.3,4.3c2.3,0,4.3-1.9,4.3-4.3c0-2.3-1.9-4.3-4.3-4.3
				C81.5,10.7,79.6,12.6,79.6,14.9z"/>
            <path class="st2" d="M106.1,20.5c0,2.3,1.9,4.3,4.3,4.3c2.3,0,4.3-1.9,4.3-4.3c0-2.3-1.9-4.3-4.3-4.3
				C108,16.3,106.1,18.2,106.1,20.5z"/>
            <path class="st2" d="M54.7,25.7L42,34.1l9.7,7.1l5.5-6l9.8,11.2h2.7L58.9,28.8C58.9,28.8,58,24.5,54.7,25.7z"/>
            <path class="st2" d="M77.3,20.5c0,0-2.6-0.6-5.4,4.3c-2.8,4.9-4.3,10.8-4.3,10.8l12.7,1C80.3,36.6,86.7,21.3,77.3,20.5z"/>
            <path class="st2" d="M45.4,36.6c0,0-5.3,3.6-3.5,7.4c2.1,4.4,2.1,4.3,16.8,30.6H64l-12.9-30l0.6-3.4L45.4,36.6z"/>
            <polyline class="st2" points="77.7,26.2 85,36.6 95.3,47.7 			"/>
            <path class="st3" d="M106,31.1l14.4,14.3c0,0,2.8,3.8,1.6,4.3c-1.3,0.4-3.8,0-3.8,0l-0.9-4L102.7,35c-1.2-0.9-1.4-2.6-0.4-3.7
				C103.2,30.2,104.9,30.1,106,31.1"/>
            <path class="st2" d="M85.6,75.1c0,2.3-1.9,4.2-4.2,4.2c-2.3,0-4.2-1.9-4.2-4.2c0-2.3,1.9-4.2,4.2-4.2
				C83.7,70.9,85.6,72.8,85.6,75.1z"/>
            <path class="st2" d="M115.7,75.1c0,2.3-1.9,4.2-4.2,4.2c-2.3,0-4.2-1.9-4.2-4.2c0-2.3,1.9-4.2,4.2-4.2
				C113.8,70.9,115.7,72.8,115.7,75.1z"/>
            <path class="st2" d="M62.1,75.1c0,2.3-1.9,4.2-4.2,4.2c-2.3,0-4.2-1.9-4.2-4.2c0-2.3,1.9-4.2,4.2-4.2
				C60.2,70.9,62.1,72.8,62.1,75.1z"/>
            <path class="st2" d="M69.7,35.8c0,0-4.2,6.4,1.3,8c5.6,1.6,8.6,2.7,8.6,2.7l-3.6,18.8l3.2,0.3l10.8-19.1l-10.4-9.8L69.7,35.8z"/>
            <polygon class="st2" points="105,24.8 110.8,31.7 107.1,35.2 107.1,41.1 95.3,39.8 			"/>
            <polygon class="st3" points="119.6,77.4 119.6,79.4 113.4,80.8 110.1,74.7 112.9,73 115,77.4 			"/>
            <path class="st2" d="M100.6,40.5c0,0-1.3,1.7,0.2,5.9c1.5,4.2,10.6,27.5,10.6,27.5"/>
            <polyline class="st2" points="107.1,41.1 121,44.1 107.6,60.2 			"/>
            <polyline class="st2" points="85.2,55.1 89.5,76.1 86.5,77.1 80.3,63.8 			"/>
            <path class="st2" d="M56,70.3c-1.2,3.1-1.6,4.3-1.6,4.3h-6.1l3.8-12"/>
            <path class="st2" d="M51.3,43.2c0,0,12.8-1.2,13.3,1.7c0.2,1.5-2.5,9.5-5.2,16.8"/>
            <polygon class="st3" points="87.6,78.4 94,79.4 89.5,76.1 			"/>
            <polygon class="st3" points="76.4,65.3 75,67.9 81.4,69.1 79.1,66.1 			"/>
		</g>
	</g>
</g>
</svg>