<svg width="150" height="150" viewBox="0 0 150 150" fill="none" xmlns="http://www.w3.org/2000/svg">
<path d="M13.1003 116.6C34.3003 70.4 11.8003 58.3 24.2003 42.2C36.6003 26.1 59.6003 23.1 75.7003 35.5C91.8003 47.9 94.8003 70.9 82.4003 87C82.4003 87.1 82.3003 87.1 82.3003 87.2C69.9003 103.1 4.60028 135 13.1003 116.6Z" fill="#E72E54"/>
<path d="M88 100.3C102.912 100.3 115 88.2117 115 73.3001C115 58.3884 102.912 46.3 88 46.3C73.0883 46.3 61 58.3884 61 73.3001C61 88.2117 73.0883 100.3 88 100.3Z" stroke="currentColor" stroke-width="5" stroke-miterlimit="10"/>
<path d="M97.2434 74.9352C99.8768 60.2576 97.2962 47.5131 91.4795 46.4695C85.6629 45.4259 78.8127 56.4784 76.1793 71.156C73.5459 85.8335 76.1265 98.5781 81.9431 99.6217C87.7598 100.665 94.6099 89.6128 97.2434 74.9352Z" stroke="currentColor" stroke-width="5" stroke-miterlimit="10"/>
<path d="M61.0996 67.5L114.5 77.1" stroke="currentColor" stroke-width="5" stroke-miterlimit="10"/>
<path d="M86.3 32.4C74.1 32.4 63.3 37.9 56.1 46.7L52 42.6" stroke="currentColor" stroke-width="5" stroke-miterlimit="10" stroke-linecap="round" stroke-linejoin="round"/>
<path d="M46.4998 42.3C50.2001 42.3 53.1998 39.3003 53.1998 35.6C53.1998 31.8997 50.2001 28.9 46.4998 28.9C42.7995 28.9 39.7998 31.8997 39.7998 35.6C39.7998 39.3003 42.7995 42.3 46.4998 42.3Z" stroke="currentColor" stroke-width="5" stroke-miterlimit="10" stroke-linecap="round" stroke-linejoin="round"/>
<path d="M46.499 74C46.499 86.2 51.999 97 60.799 104.2L56.699 108.3" stroke="currentColor" stroke-width="5" stroke-miterlimit="10" stroke-linecap="round" stroke-linejoin="round"/>
<path d="M49.5994 120.5C53.2997 120.5 56.2994 117.5 56.2994 113.8C56.2994 110.1 53.2997 107.1 49.5994 107.1C45.8991 107.1 42.8994 110.1 42.8994 113.8C42.8994 117.5 45.8991 120.5 49.5994 120.5Z" stroke="currentColor" stroke-width="5" stroke-miterlimit="10" stroke-linecap="round" stroke-linejoin="round"/>
<path d="M87.0996 112.4C99.2996 113 110.4 108.1 118 99.8L121.9 104.1" stroke="currentColor" stroke-width="5" stroke-miterlimit="10" stroke-linecap="round" stroke-linejoin="round"/>
<path d="M127 118C130.7 118 133.7 115 133.7 111.3C133.7 107.6 130.7 104.6 127 104.6C123.299 104.6 120.3 107.6 120.3 111.3C120.3 115 123.299 118 127 118Z" stroke="currentColor" stroke-width="5" stroke-miterlimit="10" stroke-linecap="round" stroke-linejoin="round"/>
<path d="M127.1 73.0001C127.7 60.8001 122.8 49.7001 114.5 42.1001L118.8 38.2001" stroke="currentColor" stroke-width="5" stroke-miterlimit="10" stroke-linecap="round" stroke-linejoin="round"/>
<path d="M126 39.8C129.7 39.8 132.7 36.8003 132.7 33.1C132.7 29.3997 129.7 26.4 126 26.4C122.299 26.4 119.3 29.3997 119.3 33.1C119.3 36.8003 122.299 39.8 126 39.8Z" stroke="currentColor" stroke-width="5" stroke-miterlimit="10" stroke-linecap="round" stroke-linejoin="round"/>
</svg>
