<?xml version="1.0" encoding="utf-8"?>
<!-- Generator: Adobe Illustrator 27.3.1, SVG Export Plug-In . SVG Version: 6.00 Build 0)  -->
<svg version="1.1" id="Calque_1" xmlns="http://www.w3.org/2000/svg" x="0px" y="0px"
     viewBox="0 0 456.5 401.5" style="enable-background:new 0 0 456.5 401.5;" xml:space="preserve">
<style type="text/css">
	.st0{fill:#FCC641;}
	.st1{fill:#088796;}
	.st2{fill:none;stroke:#FFFFFF;stroke-width:6;stroke-linecap:round;stroke-linejoin:round;}
	.st3{fill:#FFFFFF;}
</style>
    <g id="Calque_2_00000133526316960108130380000005609407544889355924_">
	<g>
		<path id="Tracé_185-10" class="st0" d="M114.3,77l-35.4,35.4l68.1,68.1l-68.1,68.1l35.4,35.4l103.5-103.5L114.3,77z"/>
        <polygon class="st1" points="82.4,401.5 456.5,252.9 399.1,242.2 0,350.2 		"/>
        <g id="Groupe_322-3">
			<circle id="Ellipse_73-4" class="st2" cx="180.2" cy="298.6" r="32"/>
            <circle id="Ellipse_74-4" class="st2" cx="263.2" cy="274" r="32"/>
            <path id="Tracé_662-2" class="st2" d="M212,233.3l15.1-4.5l37.6,49.9"/>
            <line id="Ligne_154-4" class="st2" x1="178.8" y1="299" x2="260" y2="274.9"/>
            <path id="Tracé_663-2" class="st2" d="M187,177.1c1.4,4.8,6.5,7.5,11.3,6.1s7.5-6.5,6.1-11.3s-6.5-7.5-11.3-6.1l0,0
				C188.3,167.3,185.6,172.3,187,177.1z"/>
            <path id="Tracé_666-2" class="st2" d="M183.1,195.7l-20.9,24.8l24.1,8.7l7.6-15.5l26.9,17l5.4-1.6l-32.6-29.6
				C193.6,199.5,189.1,191.4,183.1,195.7L183.1,195.7z"/>
            <path id="Tracé_668-2" class="st2" d="M170.8,223.7c0,0-8.7,10.5-2.6,17.3c7,7.8,6.9,7.5,52.9,52.4l10.6-3.2l-44.5-53.6
				l-0.9-7.3L170.8,223.7L170.8,223.7z"/>
            <path id="Tracé_681-2" class="st2" d="M186.8,233.5c0,0,25.4-10.3,28.1-4.6c1.4,2.9,0.6,20.9-0.5,37.5"/>
		</g>
        <g>
			<path class="st3" d="M35.9,258.9c-3.9,3-7.8,5.8-11.5,8.9c-0.9,0.8-1.4,2.3-1.6,3.6c-1.4,7.4-2.6,14.8-3.8,22.2
				c-0.8,4.6-3.2,6.6-7.1,5.9c-3.4-0.7-4.9-3.6-4.2-7.9c1.4-9.1,2.6-18.2,4.3-27.2c0.4-2.2,1.6-4.7,3.3-6.2
				c6.4-5.8,13.1-11.1,19.6-16.8c6.1-5.4,13.4-5.3,20.4-3.4c2.7,0.7,5.2,4.2,6.6,6.9c3.9,7.5,7.1,15.3,10.8,22.8
				c0.9,1.8,2.5,3.5,4.3,4.4c6.2,3.3,12.6,6.2,18.9,9.4c1.7,0.9,3.6,2.1,4.4,3.7c0.8,1.5,0.8,4,0,5.5c-0.7,1.2-3,2-4.6,2
				c-1.7,0.1-3.6-0.7-5.2-1.4c-3-1.2-5.9-2.6-8.8-3.9c-8.2-3.7-17.1-6.5-20.8-16.2c-0.4,0.1-0.8,0.2-1.2,0.3c-1.5,7-3.2,14-4.5,21.1
				c-0.2,1.1,0.9,2.5,1.6,3.7c10,16.3,20,32.7,30,49c1.4,2.3,2.7,4.9,3.3,7.5c0.8,3.3,0,6.4-3.5,8.2c-3.4,1.7-6.7,1.6-9.3-1.2
				c-2.7-2.9-5.2-6-7.4-9.3c-11.4-17.5-22.6-35-34-52.5c-3.7-5.6-4.8-11.4-3.2-17.9c1.6-6.8,2.9-13.7,4.4-20.6
				C36.5,259.4,36.2,259.1,35.9,258.9L35.9,258.9z"/>
            <path class="st3" d="M29.1,303.1c3.8,5.2,7.2,9.7,10.4,14.4c0.7,1,1,2.6,0.7,3.7c-1.3,3.9-2.3,8.2-4.6,11.4
				c-6.3,9-13,17.8-19.9,26.3c-3.2,4-7,4.3-10.1,2c-2.9-2.3-3.3-6.1-0.7-10.4c2.7-4.3,5.4-8.6,8.6-12.5c7.3-8.8,11.6-19,14-30
				c0.2-1,0.6-2.1,0.9-3.1C28.4,304.6,28.6,304.2,29.1,303.1L29.1,303.1z"/>
            <path class="st3" d="M60.5,230.6c-8.7,0-15.4-6.6-15.5-15.2c-0.1-8.8,6.8-15.7,15.6-15.7s15.6,7,15.5,15.8
				C76,224.1,69.3,230.6,60.5,230.6L60.5,230.6z"/>
		</g>
	</g>
</g>
</svg>