<?xml version="1.0" encoding="UTF-8"?>
<svg id="Calque_1" data-name="Calque 1" xmlns="http://www.w3.org/2000/svg" viewBox="0 0 150 150">
  <defs>
    <style>
      .cls-1 {
        fill: #e72e54;
      }

      .cls-2 {
        fill: none;
        stroke: #101010;
        stroke-linecap: round;
        stroke-linejoin: round;
        stroke-width: 5px;
      }
    </style>
  </defs>
  <path id="Tracé_190" data-name="Tracé 190" class="cls-1" d="m20.67,116.6c21.2-46.2-1.3-58.3,11.1-74.4,12.4-16.1,35.4-19.1,51.5-6.7,16.1,12.4,19.1,35.4,6.7,51.5,0,.1-.1.1-.1.2-12.4,15.9-77.7,47.8-69.2,29.4"/>
  <g id="Groupe_207" data-name="Groupe 207">
    <path id="Rectangle_196" data-name="Rectangle 196" class="cls-2" d="m72.18,101.05l8.66,5.57c3.01,1.94,3.88,5.95,1.94,8.96h0c-1.94,3.01-5.95,3.88-8.96,1.94l-8.66-5.57c-3.01-1.94-3.88-5.95-1.94-8.96h0c1.94-3.01,5.95-3.88,8.96-1.94Z"/>
    <g id="Groupe_206" data-name="Groupe 206">
      <path id="Tracé_429" data-name="Tracé 429" class="cls-2" d="m112.58,88.99c-.08-.18.03.09-.07-.12-1.12-1.61-6.96-2.37-9.82-3.83-3.06-1.57-5.58-5.92-12.53-5.92s-16.27,13.96-16.27,13.96l13.96,8.99c.46-.79,1.09-1.46,1.84-1.97,1.43-1.09,3.13.2,5.24.82s6.88,2.86,10.42,2.86c1.97.07,3.9-.56,5.45-1.77l18.45-13.96s2.65-1.36,1.43-3.4-3.74-.75-3.74-.75c0,0-13.8,6.82-14.3,6.94-.17.04.54-.97-.05-1.84h0Z"/>
    </g>
    <path id="Tracé_430" data-name="Tracé 430" class="cls-2" d="m92.93,57.93v6.84c0,2.45,1.99,4.43,4.44,4.44h13.53v9.03l9.03-9.03h5c2.45,0,4.43-1.99,4.44-4.44v-13.81c0-2.45-1.99-4.44-4.44-4.44h-2.77"/>
    <path id="Tracé_431" data-name="Tracé 431" class="cls-2" d="m83.76,28.36h27.55c2.45,0,4.43,1.99,4.44,4.44v13.81c0,2.45-1.99,4.44-4.44,4.44h-7.04v9.03l-9.03-9.03h-11.49c-2.45,0-4.44-1.99-4.44-4.44v-13.81c0-2.45,1.99-4.44,4.44-4.44Z"/>
    <path id="Tracé_432" data-name="Tracé 432" class="cls-2" d="m97.38,89.42s9.17,3.81,12.25,3.18,3.35-2.05,2.88-3.73"/>
  </g>
</svg>