<svg width="150" height="150" viewBox="0 0 150 150" fill="none" xmlns="http://www.w3.org/2000/svg">
<path d="M74.8002 77.9C74.8002 106.8 43.3002 130.2 43.3002 130.2C43.3002 130.2 11.7002 106.8 11.7002 77.9C11.7002 49 43.3002 25.6 43.3002 25.6C43.3002 25.6 74.8002 49 74.8002 77.9Z" fill="#437ABE"/>
<path d="M98.5 49.4V38" stroke="currentColor" stroke-width="5" stroke-miterlimit="10" stroke-linecap="round"/>
<path d="M110.1 49.4V38" stroke="currentColor" stroke-width="5" stroke-miterlimit="10" stroke-linecap="round"/>
<path d="M74.7998 49.4V38" stroke="currentColor" stroke-width="5" stroke-miterlimit="10" stroke-linecap="round"/>
<path d="M86.4004 49.4V38" stroke="currentColor" stroke-width="5" stroke-miterlimit="10" stroke-linecap="round"/>
<path d="M98.5 70.9V59.5" stroke="currentColor" stroke-width="5" stroke-miterlimit="10" stroke-linecap="round"/>
<path d="M110.1 70.9V59.5" stroke="currentColor" stroke-width="5" stroke-miterlimit="10" stroke-linecap="round"/>
<path d="M74.7998 70.9V59.5" stroke="currentColor" stroke-width="5" stroke-miterlimit="10" stroke-linecap="round"/>
<path d="M86.4004 70.9V59.5" stroke="currentColor" stroke-width="5" stroke-miterlimit="10" stroke-linecap="round"/>
<path d="M74 113.3H137.1" stroke="currentColor" stroke-width="5" stroke-miterlimit="10" stroke-linecap="round" stroke-linejoin="round"/>
<path d="M76.6996 113.1H122.8V31C122.8 25.9 118.7 21.8 113.6 21.8H72.7996C67.6996 21.8 63.5996 25.9 63.5996 31V86.9001" stroke="currentColor" stroke-width="5" stroke-miterlimit="10" stroke-linecap="round" stroke-linejoin="round"/>
<path d="M98.6998 88.7H87.7998C86.3998 88.7 85.2998 89.8 85.2998 91.2V113.2H101.1V91.2C101.1 89.8 99.9998 88.7 98.6998 88.7Z" stroke="currentColor" stroke-width="5" stroke-miterlimit="10" stroke-linecap="round" stroke-linejoin="round"/>
<path d="M50.4557 131.056C63.6553 131.056 74.3557 120.356 74.3557 107.156C74.3557 93.9564 63.6553 83.256 50.4557 83.256C37.2561 83.256 26.5557 93.9564 26.5557 107.156C26.5557 120.356 37.2561 131.056 50.4557 131.056Z" stroke="currentColor" stroke-width="5" stroke-linecap="round" stroke-linejoin="round"/>
<path d="M50.4561 96.9561C52.3891 96.9561 53.9561 95.3891 53.9561 93.4561C53.9561 91.5231 52.3891 89.9561 50.4561 89.9561C48.5231 89.9561 46.9561 91.5231 46.9561 93.4561C46.9561 95.3891 48.5231 96.9561 50.4561 96.9561Z" fill="currentColor"/>
<path d="M38.0557 98.9561C38.0557 98.9561 46.5557 102.156 50.3557 102.156C54.1557 102.156 62.5557 99.156 62.5557 99.156" stroke="currentColor" stroke-width="5" stroke-linecap="round" stroke-linejoin="round"/>
<path d="M50.5561 102.256C50.5561 102.256 50.9561 108.856 50.0561 112.856C49.2561 116.556 44.4561 122.256 44.4561 122.256" stroke="currentColor" stroke-width="5" stroke-linecap="round" stroke-linejoin="round"/>
<path d="M50.156 102.256C50.156 102.256 49.756 108.856 50.656 112.856C51.456 116.556 56.256 122.256 56.256 122.256" stroke="currentColor" stroke-width="5" stroke-linecap="round" stroke-linejoin="round"/>
</svg>
