<svg width="150" height="150" viewBox="0 0 150 150" fill="none" xmlns="http://www.w3.org/2000/svg">
<path d="M84.6996 75C84.6996 103.9 53.1996 127.3 53.1996 127.3C53.1996 127.3 21.5996 103.9 21.5996 75C21.5996 46.1 53.1996 22.7 53.1996 22.7C53.1996 22.7 84.6996 46.1 84.6996 75Z" fill="#467ABD"/>
<path d="M72.2095 101.089L80.9095 106.689C83.9095 108.589 84.8095 112.589 82.8095 115.689C80.9095 118.689 76.9095 119.589 73.8095 117.589L65.1095 111.989C62.1095 110.089 61.2095 106.089 63.2095 102.989C65.1095 99.9888 69.2095 99.0889 72.2095 101.089Z" stroke="currentColor" stroke-width="5" stroke-miterlimit="3.9999" stroke-linecap="round" stroke-linejoin="round"/>
<path d="M112.612 88.979C112.512 88.779 112.612 89.0789 112.512 88.8789C111.412 87.2789 105.512 86.479 102.712 85.079C99.6121 83.479 97.1121 79.179 90.2121 79.179C83.3121 79.179 73.9121 93.179 73.9121 93.179L87.9121 102.179C88.4121 101.379 89.0121 100.679 89.7121 100.179C91.1121 99.079 92.8121 100.379 94.9121 100.979C97.0121 101.579 101.812 103.879 105.312 103.879C107.312 103.979 109.212 103.279 110.712 102.079L129.212 88.079C129.212 88.079 131.912 86.679 130.612 84.679C129.412 82.679 126.912 83.979 126.912 83.979C126.912 83.979 113.112 90.7789 112.612 90.8789C112.412 90.8789 113.212 89.879 112.612 88.979Z" stroke="currentColor" stroke-width="5" stroke-linecap="round" stroke-linejoin="round"/>
<path d="M92.9092 57.8889V64.689C92.9092 67.189 94.9092 69.089 97.3092 69.089H110.809V78.089L119.809 69.089H124.809C127.309 69.089 129.209 67.089 129.209 64.689V50.8889C129.209 48.3889 127.209 46.4889 124.809 46.4889H122.009" stroke="currentColor" stroke-width="5" stroke-linecap="round" stroke-linejoin="round"/>
<path d="M83.8099 28.3889H111.41C113.91 28.3889 115.81 30.3889 115.81 32.7889V46.589C115.81 49.089 113.81 50.9889 111.41 50.9889H104.41V59.9889L95.4099 50.9889H83.9099C81.4099 50.9889 79.5099 48.989 79.5099 46.589V32.7889C79.3099 30.3889 81.3099 28.3889 83.8099 28.3889Z" stroke="currentColor" stroke-width="5" stroke-linecap="round" stroke-linejoin="round"/>
<path d="M97.4092 89.3889C97.4092 89.3889 106.609 93.189 109.709 92.589C112.809 91.989 113.009 90.4889 112.609 88.8889" stroke="currentColor" stroke-width="5" stroke-linecap="round" stroke-linejoin="round"/>
</svg>
