<svg width="150" height="150" viewBox="0 0 150 150" fill="none" xmlns="http://www.w3.org/2000/svg">
<path d="M81.5004 77.9C81.5004 106.8 50.0004 130.2 50.0004 130.2C50.0004 130.2 18.4004 106.8 18.4004 77.9C18.4004 49 50.0004 25.6 50.0004 25.6C50.0004 25.6 81.5004 49 81.5004 77.9Z" fill="#437ABE"/>
<path d="M101.3 103C96.4002 106.2 90.5002 108.1 84.2002 108.1C78.5002 108.1 73.2002 106.6 68.7002 103.9" stroke="currentColor" stroke-width="5" stroke-miterlimit="10" stroke-linejoin="round"/>
<path d="M96.2998 48.9C107.4 53.6 115.2 64.6 115.2 77.3C115.2 78.9 115.1 80.5 114.8 82.1" stroke="currentColor" stroke-width="5" stroke-miterlimit="10" stroke-linejoin="round"/>
<path d="M53.8994 83C53.5994 81.2 53.3994 79.3 53.3994 77.3C53.3994 64.7 60.9994 53.8 71.7994 49" stroke="currentColor" stroke-width="5" stroke-miterlimit="10" stroke-linejoin="round"/>
<path d="M84.2996 63.5C91.0375 63.5 96.4996 58.0378 96.4996 51.3C96.4996 44.5621 91.0375 39.1 84.2996 39.1C77.5617 39.1 72.0996 44.5621 72.0996 51.3C72.0996 58.0378 77.5617 63.5 84.2996 63.5Z" stroke="currentColor" stroke-width="5" stroke-miterlimit="10" stroke-linejoin="round"/>
<path d="M71.6998 94.3C71.6998 101.1 66.1998 106.5 59.4998 106.5C52.7998 106.5 47.2998 101 47.2998 94.3C47.2998 89.7 49.7998 85.8 53.4998 83.7C55.2998 82.7 57.2998 82.1 59.4998 82.1C66.1998 82.1 71.6998 87.6 71.6998 94.3Z" stroke="currentColor" stroke-width="5" stroke-miterlimit="10" stroke-linejoin="round"/>
<path d="M122.2 94.3C122.2 101.1 116.7 106.5 110 106.5C103.3 106.5 97.7998 101 97.7998 94.3C97.7998 87.6 103.3 82.1 110 82.1C111.5 82.1 113 82.4 114.3 82.9C118.9 84.6 122.2 89.1 122.2 94.3Z" stroke="currentColor" stroke-width="5" stroke-miterlimit="10" stroke-linejoin="round"/>
</svg>
