<svg width="150" height="150" viewBox="0 0 150 150" fill="none" xmlns="http://www.w3.org/2000/svg">
<path d="M16.1003 116.6C37.3003 70.4 14.8003 58.3 27.2003 42.2C39.6003 26.1 62.6003 23.1 78.7003 35.5C94.8003 47.9 97.8003 70.9 85.4003 87C85.4003 87.1 85.3003 87.1 85.3003 87.2C72.9003 103.1 7.60028 135 16.1003 116.6Z" fill="#E72E54"/>
<path d="M121.6 113.3L54 113.7C46.8 113.7 40.8 107.8 40.8 100.6L40.5 49.9C40.5 42.7 46.4 36.7 53.6 36.7L121.2 36.4C128.4 36.4 134.4 42.3 134.4 49.5L134.7 100.2C134.7 107.4 128.8 113.3 121.6 113.3Z" stroke="currentColor" stroke-width="5" stroke-linecap="round" stroke-linejoin="round"/>
<path d="M41 56.5H133.7" stroke="currentColor" stroke-width="5" stroke-linecap="round" stroke-linejoin="round"/>
<path d="M61.0996 37.2001V53.9001" stroke="currentColor" stroke-width="5" stroke-linecap="round" stroke-linejoin="round"/>
<path d="M73.7998 46.5H79.6998" stroke="currentColor" stroke-width="5" stroke-linecap="round" stroke-linejoin="round"/>
<path d="M88.2002 46.5H94.1002" stroke="currentColor" stroke-width="5" stroke-linecap="round" stroke-linejoin="round"/>
<path d="M102.6 46.5H108.6" stroke="currentColor" stroke-width="5" stroke-linecap="round" stroke-linejoin="round"/>
<path d="M87.6006 77.2999V90.4999" stroke="currentColor" stroke-width="5" stroke-linecap="round" stroke-linejoin="round"/>
<path d="M87.6002 75.9C90.5825 75.9 93.0002 73.4823 93.0002 70.5C93.0002 67.5176 90.5825 65.1 87.6002 65.1C84.6179 65.1 82.2002 67.5176 82.2002 70.5C82.2002 73.4823 84.6179 75.9 87.6002 75.9Z" stroke="currentColor" stroke-width="5" stroke-linecap="round" stroke-linejoin="round"/>
<path d="M87.6002 102.8C90.5825 102.8 93.0002 100.382 93.0002 97.4C93.0002 94.4177 90.5825 92 87.6002 92C84.6179 92 82.2002 94.4177 82.2002 97.4C82.2002 100.382 84.6179 102.8 87.6002 102.8Z" stroke="currentColor" stroke-width="5" stroke-linecap="round" stroke-linejoin="round"/>
<path d="M68.8004 102.8C71.7827 102.8 74.2004 100.382 74.2004 97.4C74.2004 94.4177 71.7827 92 68.8004 92C65.8181 92 63.4004 94.4177 63.4004 97.4C63.4004 100.382 65.8181 102.8 68.8004 102.8Z" stroke="currentColor" stroke-width="5" stroke-linecap="round" stroke-linejoin="round"/>
<path d="M106.3 102.8C109.283 102.8 111.7 100.382 111.7 97.4C111.7 94.4177 109.283 92 106.3 92C103.318 92 100.9 94.4177 100.9 97.4C100.9 100.382 103.318 102.8 106.3 102.8Z" stroke="currentColor" stroke-width="5" stroke-linecap="round" stroke-linejoin="round"/>
<path d="M107.1 91.9V88.4C107.1 86.2 105.3 84.4 103.1 84.4H73.5C71.3 84.4 69.5 86.2 69.5 88.4V91.6" stroke="currentColor" stroke-width="5" stroke-linecap="round" stroke-linejoin="round"/>
</svg>
