<svg width="150" height="150" viewBox="0 0 150 150" fill="none" xmlns="http://www.w3.org/2000/svg">
<path d="M20.6999 116.6C41.8999 70.4 19.3999 58.3 31.7999 42.2C44.1999 26.1 67.1999 23.1 83.2999 35.5C99.3999 47.9 102.4 70.9 89.9999 87C89.9999 87.1 89.8999 87.1 89.8999 87.2C77.4999 103.1 12.1999 135 20.6999 116.6Z" fill="#E72E54"/>
<path d="M72.2105 101.089L80.9105 106.689C83.9105 108.589 84.8105 112.589 82.8105 115.689C80.9105 118.689 76.9105 119.589 73.8105 117.589L65.1105 111.989C62.1105 110.089 61.2105 106.089 63.2105 102.989C65.1105 99.9888 69.2105 99.0889 72.2105 101.089Z" stroke="currentColor" stroke-width="5" stroke-miterlimit="3.9999" stroke-linecap="round" stroke-linejoin="round"/>
<path d="M112.614 88.979C112.514 88.779 112.614 89.0789 112.514 88.8789C111.414 87.2789 105.514 86.479 102.714 85.079C99.6141 83.479 97.1141 79.179 90.2141 79.179C83.3141 79.179 73.9141 93.179 73.9141 93.179L87.9141 102.179C88.4141 101.379 89.0141 100.679 89.7141 100.179C91.1141 99.079 92.8141 100.379 94.9141 100.979C97.0141 101.579 101.814 103.879 105.314 103.879C107.314 103.979 109.214 103.279 110.714 102.079L129.214 88.079C129.214 88.079 131.914 86.679 130.614 84.679C129.414 82.679 126.914 83.979 126.914 83.979C126.914 83.979 113.114 90.7789 112.614 90.8789C112.414 90.8789 113.214 89.879 112.614 88.979Z" stroke="currentColor" stroke-width="5" stroke-linecap="round" stroke-linejoin="round"/>
<path d="M92.9102 57.8889V64.689C92.9102 67.189 94.9102 69.089 97.3102 69.089H110.81V78.089L119.81 69.089H124.81C127.31 69.089 129.21 67.089 129.21 64.689V50.8889C129.21 48.3889 127.21 46.4889 124.81 46.4889H122.01" stroke="currentColor" stroke-width="5" stroke-linecap="round" stroke-linejoin="round"/>
<path d="M83.8099 28.3889H111.41C113.91 28.3889 115.81 30.3889 115.81 32.7889V46.589C115.81 49.089 113.81 50.9889 111.41 50.9889H104.41V59.9889L95.4099 50.9889H83.9099C81.4099 50.9889 79.5099 48.989 79.5099 46.589V32.7889C79.3099 30.3889 81.3099 28.3889 83.8099 28.3889Z" stroke="currentColor" stroke-width="5" stroke-linecap="round" stroke-linejoin="round"/>
<path d="M97.4102 89.3889C97.4102 89.3889 106.61 93.189 109.71 92.589C112.81 91.989 113.01 90.4889 112.61 88.8889" stroke="currentColor" stroke-width="5" stroke-linecap="round" stroke-linejoin="round"/>
</svg>
